<svg width="500" height="600" viewBox="0 0 500 600" fill="none" xmlns="http://www.w3.org/2000/svg">
<g clip-path="url(#clip0_300_2)">
<path fill-rule="evenodd" clip-rule="evenodd" d="M26.6092 210.695C26.6412 220.136 16.9414 215.177 24.3743 230.058C30.8523 228.7 41.7144 227.582 46.2583 230.873C52.248 235.211 66.0896 226.426 68.2762 230.607C72.6387 238.95 79.2607 231.467 85.1733 239.745C87.2523 242.655 110.197 235.104 112.613 245.826C113.324 248.982 118.131 251.385 122.131 245.751C125.448 241.08 134.548 238.883 136.538 243.816C138.412 248.46 144.888 250.062 149.861 250.478C152.97 250.738 166.169 250.525 173.833 250.56C174.213 235.762 180.82 239.498 184.006 228.041C185.311 223.349 181.939 213.048 183.334 203.668C184.579 195.29 177.841 191.833 185.673 181.181C188.598 177.203 181.999 170.664 175.483 170.498C172.175 170.414 167.149 167.409 160.814 167.616C157.836 167.713 158.002 161.492 158.002 160.056C156.985 158.344 155.986 142.929 157.36 142.221C160.111 140.803 161.323 141.664 167.079 138.45C179.963 131.254 174.251 142.873 182.832 128.265C183.338 127.404 184.705 125.767 186.3 123.922C182.601 122.605 182.102 119.055 182.631 112.594C182.935 108.876 190.682 102.814 190.682 101.329C190.682 94.1752 186.707 89.9903 195.693 89.9903C200.057 89.9903 200.495 90.5431 200.14 88.5616C199.245 83.5644 195.954 85.9925 195.954 78.6513C195.954 73.2407 188.932 62.7897 191.386 62.3695C191.386 59.7723 193.404 57.6426 195.924 56.2638C204.623 51.5055 197.103 45.9159 193.845 41.9174C187.41 34.0169 192.991 29.6702 194.488 24.2818C195.625 20.1922 213.61 12.9547 205.562 14.4459C181.864 18.838 193.737 5.09239 167.581 5.09239C159.735 5.09239 157.096 -0.511869 156.918 1.18834C155.569 14.064 164.012 11.9119 165.472 15.825C169.634 26.9812 154.955 13.7233 154.106 20.1862C153.104 27.8199 153.667 23.7209 149.86 30.7448C141.777 45.6555 159.933 41.0245 161.165 48.4137C163.507 62.4598 151.812 57.0228 152.028 52.4844C152.562 41.2755 146.002 51.3728 140.693 46.7941C134.838 41.744 122.158 42.4267 120.754 49.045C120.181 51.7431 117.609 53.8734 117.591 53.9379C112.756 55.0632 113.592 52.461 110.593 51.878C98.8301 49.5907 103.626 58.8651 102.802 64.4048C102.493 66.4813 91.9693 69.7631 91.5876 72.8368C90.6191 80.6333 87.2561 82.6428 96.5673 86.601C114.008 94.0158 100.533 99.9763 93.0237 104.918C83.8257 110.971 76.4293 105.566 74.6604 109.736C71.8783 116.295 65.0171 118.126 57.8541 115.283C58.1805 115.647 58.5336 116.052 58.5874 116.521C60.2956 131.448 69.1951 129.027 55.3343 146.883C50.0131 153.738 55.043 153.513 55.043 160.448C55.043 175.676 54.4011 174.304 40.3149 174.304C35.4142 174.304 34.6564 182.656 34.2804 186.009C33.5795 192.265 26.605 209.082 26.6099 210.698L26.6092 210.695Z" fill="#D9DADA" stroke="#E97500" stroke-width="1.99997" stroke-miterlimit="22.9256"/>
<path fill-rule="evenodd" clip-rule="evenodd" d="M185.676 181.179C177.844 191.831 184.582 195.289 183.337 203.666C181.941 213.046 185.314 223.347 184.009 228.039C180.823 239.496 174.215 235.761 173.836 250.558C176.919 250.572 179.107 250.626 179.382 250.767C183.85 253.054 193.532 249.74 188.197 258.326C186.451 261.136 174.564 263.851 199.06 263.851C199.146 263.851 199.277 263.877 199.449 263.924C201.103 262.067 204.002 261.09 206.675 261.09C212.959 261.09 228.461 254.378 228.461 250.332C228.461 234.871 232.679 248.863 232.679 239.284C232.679 228.601 255.24 238.247 254.847 231.459C254.394 223.639 239.957 227.602 248.667 217.333C250.551 216.407 260.932 213.859 263.366 215.414C279.228 225.552 270.386 208.405 277.271 203.352C283.022 199.131 271.684 189.156 278.536 189.422C293.043 189.983 289.202 171.876 293.175 171.977C303.844 172.247 293.899 166.394 293.084 165.215C283.011 150.641 309.814 160.531 309.841 148.983C309.853 143.6 327.831 125.71 321.317 127.277C312.795 129.327 312.067 127.298 305.242 126.33C290.856 124.289 297.94 126.574 296.046 119.959C287.09 118.252 285.915 124.416 285.915 114.119C285.915 105.019 287.943 103.628 279.499 104.865C262.954 107.287 271.034 98.9508 267.582 97.7377C260.213 95.1477 265.219 105.687 254.028 105.687C250.542 105.687 243.522 114.474 242.311 117.217C235.778 132.025 244.77 131.564 224.892 131.564C216.253 131.564 228.12 121.977 214.199 123.688C202.571 125.118 209.904 115.556 201.93 118.481C201.93 120.841 198.828 123.757 197.01 124.005C191.949 124.695 188.54 124.717 186.302 123.92C184.708 125.765 183.34 127.402 182.834 128.263C174.254 142.871 179.966 131.252 167.082 138.448C161.325 141.662 160.114 140.801 157.363 142.219C155.989 142.927 156.988 158.342 158.005 160.054C158.005 161.49 157.839 167.711 160.817 167.614C167.152 167.407 172.177 170.412 175.485 170.496C182.002 170.661 188.601 177.201 185.676 181.179Z" fill="#D9DADA" stroke="#828282" stroke-width="1.99997" stroke-miterlimit="22.9256"/>
<path fill-rule="evenodd" clip-rule="evenodd" d="M166.22 276.305C166.696 274.491 172.919 270.896 175.095 266.723C175.994 265 180.806 264.977 185.362 263.142C180.975 262.153 186.993 260.262 188.196 258.326C193.531 249.74 183.848 253.054 179.381 250.767C179.106 250.626 176.918 250.572 173.835 250.558C166.17 250.524 152.972 250.736 149.863 250.476C144.889 250.06 138.414 248.459 136.54 243.814C134.55 238.881 125.449 241.078 122.132 245.749C118.133 251.383 113.326 248.981 112.614 245.824C110.199 235.102 87.2538 242.654 85.1748 239.743C79.2622 231.465 72.6405 238.948 68.2777 230.605C66.0911 226.424 52.2495 235.209 46.2598 230.871C41.7159 227.58 30.8537 228.699 24.3758 230.056C24.3024 229.91 24.2313 229.765 24.1616 229.622C21.9087 231.223 19.6821 232.537 18.1489 232.668C17.5177 234.177 12.1837 234.7 8.75145 245.07C6.27757 252.545 10.2575 254.437 9.16288 257.041C14.8977 260.091 20.0254 252.2 30.4479 257.697C34.9594 260.076 38.5302 272.637 38.5302 277.733C38.5302 291.579 41.2461 279.011 49.5437 292.852L49.7748 293.434C49.7748 304.672 40.875 297.314 41.341 313.786C41.3764 315.034 39.7803 317.796 39.5842 319.31C38.6729 320.975 38.5298 320.693 38.5298 322.217C34.8973 332.257 32.1656 327.945 38.5897 339.384C40.0702 342.021 40.2765 347.189 37.9272 349.415C35.6441 351.578 35.4055 351.406 33.4345 353.037C25.6869 359.447 42.6837 360.728 30.1415 370.697C27.9142 372.467 25.1494 374.399 24.2791 376.855C31.4643 377.182 37.7235 377.433 37.8263 377.459C39.923 377.608 48.8936 372.638 50.7377 371.428C58.1827 366.544 70.3213 371.249 73.4084 376.005C78.9336 384.519 85.9103 379.313 92.5245 384.312C103.08 392.291 120.507 384.571 127.438 385.997C127.498 375.669 128.517 380.146 133.349 371.036C136.911 364.319 123.57 373.082 123.57 358.368C123.57 350.43 125.281 350.825 120.086 345.766C117.254 343.008 123.465 342.061 123.218 335.665C123.143 333.726 123.921 325.771 123.921 322.241C123.921 314.19 123.556 314.947 132.706 314.947C135.47 314.947 129.481 305.707 140.317 305.934C143.214 305.995 144.155 303.661 145.005 301.864C142.979 298.591 153.421 294.248 156.366 290.392C160.902 284.453 161.212 295.398 166.22 276.303V276.305Z" fill="#D9DADA" stroke="#2B2A29" stroke-width="1.99997" stroke-miterlimit="22.9256"/>
<path fill-rule="evenodd" clip-rule="evenodd" d="M175.094 266.723C172.918 270.896 166.695 274.492 166.219 276.306C161.211 295.401 160.902 284.456 156.365 290.394C153.42 294.251 142.978 298.594 145.004 301.866C144.154 303.664 143.213 305.998 140.316 305.937C129.48 305.709 135.469 314.95 132.705 314.95C123.555 314.95 123.92 314.193 123.92 322.244C123.92 325.774 123.143 333.729 123.218 335.668C123.464 342.063 117.253 343.011 120.085 345.769C125.28 350.828 123.569 350.433 123.569 358.371C123.569 373.085 136.91 364.322 133.348 371.039C128.517 380.149 127.496 375.672 127.437 386C128.287 386.174 128.979 386.486 129.481 386.982C132.461 389.92 139.8 393.963 143.597 394.35C148.845 394.884 158.444 397.353 163.105 399.127C170.277 401.855 188.33 399.112 191.508 401.884C194.583 404.566 208.757 403.635 213 407.99C213 414.362 214.592 409.714 215.299 412.218C216.376 416.033 229.563 414.988 233.512 416.302C240.899 418.758 241.414 416.873 246.734 418.166C250.105 418.985 248.772 419.944 250.821 422.091C252.593 421.816 258.649 418.655 261.524 417.718C265.325 416.478 270.85 417.068 273.938 413.792C280.959 406.346 284.326 418.111 287.542 418.021C292.744 417.874 290.375 416.099 289.299 414.835C284.047 408.668 291.267 405.281 293.647 409.261C294.709 411.038 298.889 417.044 302.081 415.113C303.104 415.113 304.129 415.113 305.153 415.113C308.974 415.113 316.741 423.001 317.512 417.123C319.022 405.625 327.506 411.255 328.667 414.582C329.995 418.389 339.445 410.134 329.49 403.484C328.508 402.711 328.888 402.856 327.733 402.902C318.586 403.274 328.352 394.512 328.406 394.496C332.585 393.174 335.496 380.618 339.36 382.043C348.191 385.303 358.869 375.923 362.843 377.366C369.833 379.904 374.631 376.671 378.716 380.805C380.98 383.097 378.492 395.892 389.871 386.886C397.628 380.747 390.198 375.33 383.957 375.572C377.149 375.836 377.837 368.553 378.917 366.434C384.611 355.255 376.943 353.201 380.443 350.834C388.595 345.319 382.928 348.255 386.768 343.706C390.374 339.435 387.796 335.638 384.66 335.74C374.882 336.059 382.57 332.652 383.798 325.401C383.231 325.469 382.655 325.355 382.203 325.2C381.026 324.799 370.811 328.031 365.396 325.341C355.03 320.193 356.54 326.36 352.686 326.288C344.208 326.131 342.571 329.557 340.738 329.486C320.972 328.721 319.937 339.781 309.112 335.742C292.698 329.618 300.066 339.343 294.674 339.397C285.387 339.489 296.358 323.754 275.729 331.763C265.135 335.875 268.291 325.929 264.514 324.328C255.405 320.465 260.179 305.534 256.753 305.645C246.016 305.995 253.641 301.504 249.605 299.905C238.971 295.693 246.788 289.364 234.936 289.364C226.6 289.364 224.424 286.453 224.424 280.907C224.424 276.285 211.047 274.322 206.182 273.373C202.99 272.75 199.517 266.845 198.603 263.851C191.277 263.841 187.302 263.58 185.362 263.143C180.806 264.978 175.994 265.001 175.096 266.723H175.094Z" fill="#D9DADA" stroke="#FF8000" stroke-width="1.99997" stroke-miterlimit="22.9256"/>
<path fill-rule="evenodd" clip-rule="evenodd" d="M151.715 477.928C153.674 465.782 167.146 468.816 167.146 452.268C167.146 445.612 162.334 440.939 163.923 438.362C168.656 430.687 164.494 431.792 172.909 430.171C187.84 427.296 179.594 425.95 176.373 419.804C170.497 408.593 173.422 416.181 166.152 413.457C163.776 412.567 166.518 405.572 168.648 400.206C166.493 400.012 164.571 399.683 163.104 399.125C158.443 397.351 148.845 394.883 143.596 394.349C139.8 393.962 132.46 389.919 129.48 386.98C128.978 386.485 128.286 386.173 127.436 385.998C120.506 384.572 103.079 392.292 92.5229 384.313C85.9083 379.314 78.9316 384.52 73.4068 376.007C70.3197 371.25 58.1811 366.545 50.7361 371.429C48.892 372.639 39.9214 377.609 37.8247 377.46C37.7242 377.435 31.7661 377.196 24.8044 376.88C22.1965 380.289 22.7232 385.389 24.5955 389.06C26.3086 392.421 19.469 398.976 23.968 407.34C24.8895 409.053 25.9627 418.412 24.4197 420.17C21.1606 423.885 20.113 424.411 13.5414 424.411C12.2679 424.411 10.9945 424.411 9.721 424.411C10.7332 425.516 9.16013 425.914 8.85823 428.298C8.17991 433.656 -2.8893 427.722 2.54819 437.917C6.1137 444.603 9.10592 444.236 16.9104 446.192C25.916 448.448 32.8148 444.196 35.5495 451.608C36.7661 454.904 37.1697 458.751 35.9312 462.037L35.9011 462.353C33.0444 465.847 34.6683 470.782 27.4379 477.18C23.1745 480.954 31.0441 497.055 24.4867 506.33C21.901 509.987 23.2261 511.751 15.1694 511.488C15.0753 511.485 5.45985 523.676 14.0247 529.249C20.5613 533.501 0.467674 556.094 17.6294 551.055C18.6562 550.753 27.3709 542.321 27.7895 553.356C27.9284 557.017 39.3458 549.332 44.0444 559.752C45.4484 562.866 55.9865 558.298 58.0403 558.298C60.7156 558.298 66.6383 560.363 74.9072 560.043C83.1728 559.723 85.4637 561.754 84.4256 549.094C83.9772 543.633 81.8963 542.595 93.5313 541.41C100.462 540.705 107.811 539.296 111.985 544.126C120.063 553.474 133.578 554.8 146.122 550.93C148.295 550.259 152.721 548.823 157.454 547.686C157.307 547.028 157.144 546.521 157.146 546.168C157.174 537.648 156.014 542.294 152.211 536.889C147.029 529.525 158.014 535.468 160.117 530.309C160.117 529.394 160.312 526.033 159.987 525.38C158.882 523.157 161.931 520.021 158.24 519.008C149.47 516.6 151.997 513.792 151.86 509.389C151.568 500.036 155.45 501.005 155.198 493.895C154.214 493.192 150.687 492.732 149.314 492.732C144.174 492.732 151.14 481.491 151.715 477.928Z" fill="#D9DADA" stroke="black" stroke-width="1.99997" stroke-miterlimit="22.9256"/>
<path fill-rule="evenodd" clip-rule="evenodd" d="M167.146 452.269C167.146 468.817 153.673 465.783 151.714 477.929C151.139 481.492 144.173 492.732 149.314 492.732C150.687 492.732 154.214 493.192 155.197 493.895C155.45 501.006 151.568 500.037 151.86 509.389C151.997 513.792 149.469 516.6 158.24 519.008C161.931 520.022 158.882 523.157 159.987 525.38C160.312 526.034 160.117 529.394 160.117 530.31C158.014 535.468 147.029 529.525 152.211 536.889C156.014 542.294 157.174 537.648 157.145 546.168C157.144 546.522 157.307 547.029 157.453 547.687C167.487 545.277 178.898 544.211 173.149 554.635C165.45 568.595 163.923 559.456 165.247 578.069C165.296 578.757 169.566 584.259 170.488 585.047C172.494 586.571 180.065 591.973 183.138 591.734C193.429 591.71 202.047 589.641 207.048 581.997C209.066 578.913 220.84 565.291 225.13 565.421C230.856 565.594 228.092 572.189 227.781 575.539C227.232 581.452 224.635 582.804 228.675 589.092C229.671 590.642 237.397 596.044 240.08 596.618C243.254 597.297 244.264 596.799 248.268 597.947C254.437 599.716 259.635 599.828 262.771 594.375C266.19 588.429 264.004 588.563 264.955 586.317C265.727 584.491 269.933 584.095 271.998 587.372C272.187 587.672 275.131 588.099 276.509 587.002C274.623 584.335 270.946 582.809 274.32 581.043C277.734 580.044 277.379 578.668 274.657 576.391C273.026 575.027 273.391 569.669 277.147 569.281C278.023 569.19 280.207 567.088 280.309 567.088C281.114 565.806 277.925 562.945 279.576 562.316C286.056 559.843 282.879 559.788 279.882 558.075C268.716 551.693 280.862 552.838 283.663 551.957C289.422 550.143 287.849 548.046 287.849 543.184C287.849 537.478 295.222 534.295 294.877 532.198C295.75 531.825 294.244 527.284 294.527 526.821C289.768 525.266 296.136 504.284 296.987 503.777C314.241 493.504 291.489 487.288 299.386 482.794C303.52 480.441 296.744 461.792 300.822 459.85C310.877 455.062 307.042 455.53 310.782 448.004C312.906 443.728 306.577 438.42 301.555 438.118C291.165 437.494 300.155 426.888 300.883 423.05C302.441 414.826 297.321 420.258 290.762 416.781C290.896 417.432 290.231 417.944 287.54 418.02C284.324 418.11 280.957 406.345 273.936 413.792C270.848 417.067 265.323 416.477 261.522 417.717C258.647 418.654 252.591 421.816 250.819 422.091C248.77 419.943 250.103 418.984 246.732 418.165C241.412 416.873 240.897 418.757 233.51 416.301C229.561 414.988 216.374 416.032 215.297 412.218C214.589 409.713 212.998 414.362 212.998 407.989C208.755 403.634 194.581 404.565 191.506 401.883C188.978 399.678 177.036 400.963 168.647 400.207C166.516 405.573 163.774 412.568 166.15 413.458C173.42 416.182 170.495 408.594 176.371 419.805C179.593 425.951 187.839 427.297 172.908 430.172C164.492 431.792 168.654 430.688 163.922 438.363C162.332 440.94 167.145 445.613 167.145 452.269H167.146Z" fill="#D9DADA" stroke="#039100" stroke-width="1.99997" stroke-miterlimit="22.9256"/>
<path fill-rule="evenodd" clip-rule="evenodd" d="M300.823 459.851C296.746 461.793 303.521 480.442 299.387 482.795C291.49 487.289 314.242 493.506 296.988 503.778C296.137 504.285 289.769 525.268 294.528 526.822C294.245 527.285 295.751 531.826 294.878 532.2C295.223 534.297 287.85 537.479 287.85 543.186C287.85 548.048 289.423 550.145 283.664 551.958C280.863 552.84 268.718 551.695 279.883 558.076C282.88 559.789 286.057 559.844 279.577 562.317C277.927 562.947 281.115 565.808 280.31 567.089C280.208 567.089 278.024 569.192 277.148 569.282C273.392 569.67 273.027 575.029 274.658 576.393C277.379 578.669 277.735 580.045 274.322 581.045C270.947 582.81 274.625 584.336 276.51 587.003C276.76 586.805 276.958 586.556 277.079 586.248C277.72 584.615 282.512 586.621 282.807 588.682C282.991 589.973 285.699 593.642 288.72 592.133C290.619 591.185 294.719 588.682 295.939 588.682C296.888 588.682 297.739 588.56 298.047 589.554C298.075 590.066 302.09 600.106 306.188 597.064C308.892 595.056 307.441 593.356 313.346 594.983C315.5 595.576 329.568 604.045 327.929 594.921C327.596 593.064 323.873 595.245 323.873 590.514C323.873 587.144 323.065 581.885 327.563 579.985C327.633 579.955 334.166 583.956 335.369 581.376C337.272 577.297 338.196 580.463 337.93 575.308C337.844 573.655 356.247 576.622 356.363 573.684C356.46 571.232 358.11 569.103 353.331 567.117C350.984 566.142 350.437 557.807 356.785 558.844C368.589 560.771 363.692 549.614 365.866 548.269C363.761 541.269 367.799 536.894 367.799 530.616C367.799 526.629 375.207 534.527 377.403 520.926C377.655 519.362 379.439 512.506 382.498 514.542C386.118 516.952 389.126 518.219 393.964 518.031C394.532 517.399 395.893 512.382 396.439 512.361C406.008 512.008 408.261 517.855 410.188 506.754C411.3 500.355 411.9 499.392 411.9 492.37C411.9 490.263 411.9 488.156 411.9 486.049C411.948 485.947 412 485.85 412.056 485.759C405.021 479.749 398.996 472.305 392.919 472.305C386.863 472.305 383.034 465.526 383.08 464.405C383.22 460.995 377.953 450.651 381.644 447.858C390.846 440.896 371.077 437.136 371.132 436.352C372.527 416.278 377.384 433.684 379.596 418.808C381.365 406.907 366.01 405.403 363.461 411.274C360.576 417.917 353.44 411.693 345.921 411.224C336.733 410.65 338.817 411.109 336.434 414.522C334.269 417.621 332.199 417.057 330.638 415.431C329.767 415.714 328.984 415.493 328.667 414.582C327.506 411.256 319.021 405.626 317.512 417.124C316.74 423.001 308.974 415.114 305.152 415.114C304.129 415.114 303.104 415.114 302.08 415.114C298.889 417.044 294.709 411.039 293.647 409.262C291.267 405.282 284.047 408.669 289.299 414.836C289.818 415.446 290.639 416.175 290.764 416.783C297.323 420.259 302.443 414.827 300.884 423.051C300.157 426.89 291.167 437.496 301.557 438.12C306.579 438.422 312.908 443.73 310.784 448.005C307.044 455.531 310.879 455.063 300.824 459.851H300.823Z" fill="#D9DADA" stroke="#2B2A29" stroke-width="1.99997" stroke-miterlimit="22.9256"/>
<path fill-rule="evenodd" clip-rule="evenodd" d="M379.595 418.806C377.383 433.682 372.527 416.276 371.131 436.35C371.077 437.134 390.845 440.894 381.643 447.856C377.952 450.649 383.22 460.993 383.079 464.403C383.033 465.524 386.862 472.303 392.919 472.303C398.996 472.303 405.021 479.747 412.056 485.757C413.506 483.42 417.915 484.582 420.186 485.248C424.089 486.392 424.658 490.147 429.712 492.026C430.37 492.271 437.311 494.695 437.287 493.856C437.23 491.8 437.251 489.604 437.742 487.599C438.028 486.425 437.956 485.249 439.571 484.594C442.366 479.87 447.194 481.57 448.588 473.811C450.017 465.854 453.447 465.283 445.776 458.136C443.66 456.164 447.068 454.401 443.487 451.765C438.854 448.353 451.987 446.43 452.514 445.709C459.903 435.581 446.472 434.61 451.57 428.264C460.637 416.976 458.963 424.476 462.001 421.818C467.898 416.659 458.773 417.93 469.23 416.901C473.539 416.476 471.65 405.1 472.543 400.229C473.358 395.786 463.823 397.05 459.1 395.676C455.974 394.767 457.403 387.005 457.403 384.578C460.066 384.578 470.404 385.637 470.404 383.125C470.404 377.596 476.844 379.182 480.334 376.778C481.617 375.894 489.236 378.158 487.211 373.721C486.618 372.421 474.621 376.149 474.621 366.843C472.695 364.555 471.957 358.683 476.875 358.398C479.451 358.249 477.946 361.581 487.136 358.979C492.05 357.588 485.137 347.878 488.532 345.775C495.498 341.46 493.872 337.019 498.602 333.639C500.083 332.58 496.462 328.609 494.124 328.609C491.991 328.305 480.197 320.324 479.717 318.724C478.964 316.212 478.312 316.512 478.312 313.237C478.312 302.908 480.093 304.862 470.681 305.217C463.894 305.472 456.723 304.539 450.184 305.736C443.485 306.961 436.836 304.361 433.378 306.425C428.662 309.239 430.756 306.214 426.876 311.031C425.143 313.185 422.895 312.642 422.806 309.432C422.715 306.152 417.58 304.623 414.738 303.688C411.273 302.547 412.076 304.53 408.719 306.33C403.926 308.899 408.779 317.245 398.368 321C394.126 322.53 396.565 322.112 391.531 322.2C390.939 322.211 387.186 324.003 383.728 325.776C382.308 332.769 375.053 336.052 384.66 335.739C387.797 335.637 390.375 339.434 386.768 343.705C382.928 348.254 388.596 345.318 380.443 350.833C376.944 353.2 384.612 355.254 378.917 366.433C377.838 368.552 377.149 375.835 383.957 375.571C390.198 375.33 397.628 380.746 389.871 386.885C378.493 395.891 380.981 383.096 378.717 380.805C374.631 376.67 369.833 379.903 362.844 377.365C358.87 375.922 348.191 385.302 339.36 382.043C335.497 380.617 332.586 393.173 328.406 394.495C328.352 394.512 318.586 403.273 327.733 402.901C328.889 402.855 328.508 402.71 329.491 403.483C337.064 408.542 333.407 414.53 330.638 415.43C332.2 417.056 334.27 417.619 336.435 414.52C338.818 411.107 336.734 410.649 345.922 411.222C353.441 411.691 360.577 417.916 363.462 411.272C366.011 405.402 381.366 406.905 379.596 418.807L379.595 418.806Z" fill="#D9DADA" stroke="#008DAC" stroke-width="1.99997" stroke-miterlimit="22.9256"/>
</g>
<defs>
<clipPath id="clip0_300_2">
<rect width="500" height="600" fill="white"/>
</clipPath>
</defs>
</svg>
