<svg width="500" height="600" viewBox="0 0 500 600" fill="none" xmlns="http://www.w3.org/2000/svg">
<g opacity="0.7" clip-path="url(#clip0_120_37)">
<g opacity="0.6">
<mask id="mask0_120_37" style="mask-type:luminance" maskUnits="userSpaceOnUse" x="0" y="0" width="500" height="600">
<path d="M500 0H0V600H500V0Z" fill="white"/>
</mask>
<g mask="url(#mask0_120_37)">
<path fill-rule="evenodd" clip-rule="evenodd" d="M26.6092 210.695C26.6412 220.136 16.9414 215.177 24.3743 230.058C30.8523 228.7 41.7144 227.582 46.2583 230.873C52.248 235.211 66.0896 226.426 68.2762 230.607C72.6387 238.95 79.2607 231.467 85.1733 239.745C87.2523 242.655 110.197 235.104 112.613 245.826C113.324 248.982 118.131 251.385 122.131 245.751C125.448 241.08 134.548 238.883 136.538 243.816C138.412 248.46 144.888 250.062 149.861 250.478C152.97 250.738 166.169 250.525 173.833 250.56C174.213 235.762 180.82 239.498 184.006 228.041C185.311 223.349 181.939 213.048 183.334 203.668C184.579 195.29 177.841 191.833 185.673 181.181C188.598 177.203 181.999 170.664 175.483 170.498C172.175 170.414 167.149 167.409 160.814 167.616C157.836 167.713 158.002 161.492 158.002 160.056C156.985 158.344 155.986 142.929 157.36 142.221C160.111 140.803 161.323 141.664 167.079 138.45C179.963 131.254 174.251 142.873 182.832 128.265C183.338 127.404 184.705 125.767 186.3 123.922C182.601 122.605 182.102 119.055 182.631 112.594C182.935 108.876 190.682 102.814 190.682 101.329C190.682 94.1752 186.707 89.9903 195.693 89.9903C200.057 89.9903 200.495 90.5431 200.14 88.5616C199.245 83.5644 195.954 85.9925 195.954 78.6513C195.954 73.2407 188.932 62.7897 191.386 62.3695C191.386 59.7723 193.404 57.6426 195.924 56.2638C204.623 51.5055 197.103 45.9159 193.845 41.9174C187.41 34.0169 192.991 29.6702 194.488 24.2818C195.625 20.1922 213.61 12.9547 205.562 14.4459C181.864 18.838 193.737 5.09239 167.581 5.09239C159.735 5.09239 157.096 -0.511867 156.918 1.18834C155.569 14.064 164.012 11.9119 165.472 15.825C169.634 26.9812 154.955 13.7233 154.106 20.1862C153.104 27.8199 153.667 23.7209 149.86 30.7448C141.777 45.6555 159.933 41.0245 161.165 48.4137C163.507 62.4598 151.812 57.0228 152.028 52.4844C152.562 41.2755 146.002 51.3728 140.693 46.7941C134.838 41.744 122.158 42.4267 120.754 49.045C120.181 51.7431 117.609 53.8734 117.591 53.9379C112.756 55.0632 113.592 52.461 110.593 51.878C98.8301 49.5907 103.626 58.8651 102.802 64.4048C102.493 66.4813 91.9693 69.7631 91.5876 72.8368C90.6191 80.6333 87.2561 82.6428 96.5673 86.601C114.008 94.0158 100.533 99.9763 93.0237 104.918C83.8257 110.971 76.4293 105.566 74.6604 109.736C71.8783 116.295 65.0171 118.126 57.8541 115.283C58.1805 115.647 58.5336 116.052 58.5874 116.521C60.2956 131.448 69.1951 129.027 55.3343 146.883C50.0131 153.738 55.043 153.513 55.043 160.448C55.043 175.676 54.4011 174.304 40.3149 174.304C35.4142 174.304 34.6564 182.656 34.2804 186.009C33.5795 192.265 26.605 209.082 26.6099 210.698L26.6092 210.695Z" fill="#E97500" stroke="#E97500" stroke-width="1.99997" stroke-miterlimit="22.9256"/>
<path fill-rule="evenodd" clip-rule="evenodd" d="M185.676 181.179C177.844 191.831 184.582 195.289 183.337 203.666C181.941 213.046 185.314 223.347 184.009 228.039C180.823 239.496 174.215 235.761 173.836 250.558C176.919 250.572 179.107 250.626 179.382 250.767C183.85 253.054 193.532 249.74 188.197 258.326C186.451 261.136 174.564 263.851 199.06 263.851C199.146 263.851 199.277 263.877 199.449 263.924C201.103 262.067 204.002 261.09 206.675 261.09C212.959 261.09 228.461 254.378 228.461 250.332C228.461 234.871 232.679 248.863 232.679 239.284C232.679 228.601 255.24 238.247 254.847 231.459C254.394 223.639 239.957 227.602 248.667 217.333C250.551 216.407 260.932 213.859 263.366 215.414C279.228 225.552 270.386 208.405 277.271 203.352C283.022 199.131 271.684 189.156 278.536 189.422C293.043 189.983 289.202 171.876 293.175 171.977C303.844 172.247 293.899 166.394 293.084 165.215C283.011 150.641 309.814 160.531 309.841 148.983C309.853 143.6 327.831 125.71 321.317 127.277C312.795 129.327 312.067 127.298 305.242 126.33C290.856 124.289 297.94 126.574 296.046 119.959C287.09 118.252 285.915 124.416 285.915 114.119C285.915 105.019 287.943 103.628 279.499 104.865C262.954 107.287 271.034 98.9508 267.582 97.7377C260.213 95.1477 265.219 105.687 254.028 105.687C250.542 105.687 243.522 114.474 242.311 117.217C235.778 132.025 244.77 131.564 224.892 131.564C216.253 131.564 228.12 121.977 214.199 123.688C202.571 125.118 209.904 115.556 201.93 118.481C201.93 120.841 198.828 123.757 197.01 124.005C191.949 124.695 188.54 124.717 186.302 123.92C184.708 125.765 183.34 127.402 182.834 128.263C174.254 142.871 179.966 131.252 167.082 138.448C161.325 141.662 160.114 140.801 157.363 142.219C155.989 142.927 156.988 158.342 158.005 160.054C158.005 161.49 157.839 167.711 160.817 167.614C167.152 167.407 172.177 170.412 175.485 170.496C182.002 170.661 188.601 177.201 185.676 181.179Z" fill="#9702CC" stroke="#9702CC" stroke-width="1.99997" stroke-miterlimit="22.9256"/>
<path fill-rule="evenodd" clip-rule="evenodd" d="M166.22 276.305C166.696 274.491 172.919 270.896 175.095 266.723C175.994 265 180.806 264.977 185.362 263.142C180.975 262.153 186.993 260.262 188.196 258.326C193.531 249.74 183.848 253.054 179.381 250.767C179.106 250.626 176.918 250.572 173.835 250.558C166.17 250.524 152.972 250.736 149.863 250.476C144.889 250.06 138.414 248.459 136.54 243.814C134.55 238.881 125.449 241.078 122.132 245.749C118.133 251.383 113.326 248.981 112.614 245.824C110.199 235.102 87.2538 242.654 85.1748 239.743C79.2622 231.465 72.6405 238.948 68.2777 230.605C66.0911 226.424 52.2495 235.209 46.2598 230.871C41.7159 227.58 30.8537 228.699 24.3758 230.056C24.3024 229.91 24.2313 229.765 24.1616 229.622C21.9087 231.223 19.6821 232.537 18.1489 232.668C17.5177 234.177 12.1837 234.7 8.75145 245.07C6.27757 252.545 10.2575 254.437 9.16288 257.041C14.8977 260.091 20.0254 252.2 30.4479 257.697C34.9594 260.076 38.5302 272.637 38.5302 277.733C38.5302 291.579 41.2461 279.011 49.5437 292.852L49.7748 293.434C49.7748 304.672 40.875 297.314 41.341 313.786C41.3764 315.034 39.7803 317.796 39.5842 319.31C38.6729 320.975 38.5298 320.693 38.5298 322.217C34.8973 332.257 32.1656 327.945 38.5897 339.384C40.0702 342.021 40.2765 347.189 37.9272 349.415C35.6441 351.578 35.4055 351.406 33.4345 353.037C25.6869 359.447 42.6837 360.728 30.1415 370.697C27.9142 372.467 25.1494 374.399 24.2791 376.855C31.4643 377.182 37.7235 377.433 37.8263 377.459C39.923 377.608 48.8936 372.638 50.7377 371.428C58.1827 366.544 70.3213 371.249 73.4084 376.005C78.9336 384.519 85.9103 379.313 92.5245 384.312C103.08 392.291 120.507 384.571 127.438 385.997C127.498 375.669 128.517 380.146 133.349 371.036C136.911 364.319 123.57 373.082 123.57 358.368C123.57 350.43 125.281 350.825 120.086 345.766C117.254 343.008 123.465 342.061 123.218 335.665C123.143 333.726 123.921 325.771 123.921 322.241C123.921 314.19 123.556 314.947 132.706 314.947C135.47 314.947 129.481 305.707 140.317 305.934C143.214 305.995 144.155 303.661 145.005 301.864C142.979 298.591 153.421 294.248 156.366 290.392C160.902 284.453 161.212 295.398 166.22 276.303V276.305Z" fill="#0F59E8" stroke="#0F59E8" stroke-width="1.99997" stroke-miterlimit="22.9256"/>
<path fill-rule="evenodd" clip-rule="evenodd" d="M175.094 266.723C172.918 270.896 166.695 274.492 166.219 276.306C161.211 295.401 160.902 284.456 156.365 290.394C153.42 294.251 142.978 298.594 145.004 301.866C144.154 303.664 143.213 305.998 140.316 305.937C129.48 305.709 135.469 314.95 132.705 314.95C123.555 314.95 123.92 314.193 123.92 322.244C123.92 325.774 123.143 333.729 123.218 335.668C123.464 342.063 117.253 343.011 120.085 345.769C125.28 350.828 123.569 350.433 123.569 358.371C123.569 373.085 136.91 364.322 133.348 371.039C128.517 380.149 127.496 375.672 127.437 386C128.287 386.174 128.979 386.486 129.481 386.982C132.461 389.92 139.8 393.963 143.597 394.35C148.845 394.884 158.444 397.353 163.105 399.127C170.277 401.855 188.33 399.112 191.508 401.884C194.583 404.566 208.757 403.635 213 407.99C213 414.362 214.592 409.714 215.299 412.218C216.376 416.033 229.563 414.988 233.512 416.302C240.899 418.758 241.414 416.873 246.734 418.166C250.105 418.985 248.772 419.944 250.821 422.091C252.593 421.816 258.649 418.655 261.524 417.718C265.325 416.478 270.85 417.068 273.938 413.792C280.959 406.346 284.326 418.111 287.542 418.021C292.744 417.874 290.375 416.099 289.299 414.835C284.047 408.668 291.267 405.281 293.647 409.261C294.709 411.038 298.889 417.044 302.081 415.113C303.104 415.113 304.129 415.113 305.153 415.113C308.974 415.113 316.741 423.001 317.512 417.123C319.022 405.625 327.506 411.255 328.667 414.582C329.995 418.389 339.445 410.134 329.49 403.484C328.508 402.711 328.888 402.856 327.733 402.902C318.586 403.274 328.352 394.512 328.406 394.496C332.585 393.174 335.496 380.618 339.36 382.043C348.191 385.303 358.869 375.923 362.843 377.366C369.833 379.904 374.631 376.671 378.716 380.805C380.98 383.097 378.492 395.892 389.871 386.886C397.628 380.747 390.198 375.33 383.957 375.572C377.149 375.836 377.837 368.553 378.917 366.434C384.611 355.255 376.943 353.201 380.443 350.834C388.595 345.319 382.928 348.255 386.768 343.706C390.374 339.435 387.796 335.638 384.66 335.74C374.882 336.059 382.57 332.652 383.798 325.401C383.231 325.469 382.655 325.355 382.203 325.2C381.026 324.799 370.811 328.031 365.396 325.341C355.03 320.193 356.54 326.36 352.686 326.288C344.208 326.131 342.571 329.557 340.738 329.486C320.972 328.721 319.937 339.781 309.112 335.742C292.698 329.618 300.066 339.343 294.674 339.397C285.387 339.489 296.358 323.754 275.729 331.763C265.135 335.875 268.291 325.929 264.514 324.328C255.405 320.465 260.179 305.534 256.753 305.645C246.016 305.995 253.641 301.504 249.605 299.905C238.971 295.693 246.788 289.364 234.936 289.364C226.6 289.364 224.424 286.453 224.424 280.907C224.424 276.285 211.047 274.322 206.182 273.373C202.99 272.75 199.517 266.845 198.603 263.851C191.277 263.841 187.302 263.58 185.362 263.143C180.806 264.978 175.994 265.001 175.096 266.723H175.094Z" fill="#FF8000" stroke="#FF8000" stroke-width="1.99997" stroke-miterlimit="22.9256"/>
<path fill-rule="evenodd" clip-rule="evenodd" d="M151.715 477.928C153.674 465.782 167.146 468.816 167.146 452.268C167.146 445.612 162.334 440.939 163.923 438.362C168.656 430.687 164.494 431.792 172.909 430.171C187.84 427.296 179.594 425.95 176.373 419.804C170.497 408.593 173.422 416.181 166.152 413.457C163.776 412.567 166.518 405.572 168.648 400.206C166.493 400.012 164.571 399.683 163.104 399.125C158.443 397.351 148.845 394.883 143.596 394.349C139.8 393.962 132.46 389.919 129.48 386.98C128.978 386.485 128.286 386.173 127.436 385.998C120.506 384.572 103.079 392.292 92.5229 384.313C85.9083 379.314 78.9316 384.52 73.4068 376.007C70.3197 371.25 58.1811 366.545 50.7361 371.429C48.892 372.639 39.9214 377.609 37.8247 377.46C37.7242 377.435 31.7661 377.196 24.8044 376.88C22.1965 380.289 22.7232 385.389 24.5955 389.06C26.3086 392.421 19.469 398.976 23.968 407.34C24.8895 409.053 25.9627 418.412 24.4197 420.17C21.1606 423.885 20.113 424.411 13.5414 424.411C12.2679 424.411 10.9945 424.411 9.721 424.411C10.7332 425.516 9.16013 425.914 8.85823 428.298C8.17991 433.656 -2.8893 427.722 2.54819 437.917C6.1137 444.603 9.10592 444.236 16.9104 446.192C25.916 448.448 32.8148 444.196 35.5495 451.608C36.7661 454.904 37.1697 458.751 35.9312 462.037L35.9011 462.353C33.0444 465.847 34.6683 470.782 27.4379 477.18C23.1745 480.954 31.0441 497.055 24.4867 506.33C21.901 509.987 23.2261 511.751 15.1694 511.488C15.0753 511.485 5.45985 523.676 14.0247 529.249C20.5613 533.501 0.467672 556.094 17.6294 551.055C18.6562 550.753 27.3709 542.321 27.7895 553.356C27.9284 557.017 39.3458 549.332 44.0444 559.752C45.4484 562.866 55.9865 558.298 58.0403 558.298C60.7156 558.298 66.6383 560.363 74.9072 560.043C83.1728 559.723 85.4637 561.754 84.4256 549.094C83.9772 543.633 81.8963 542.595 93.5313 541.41C100.462 540.705 107.811 539.296 111.985 544.126C120.063 553.474 133.578 554.8 146.122 550.93C148.295 550.259 152.721 548.823 157.454 547.686C157.307 547.028 157.144 546.521 157.146 546.168C157.174 537.648 156.014 542.294 152.211 536.889C147.029 529.525 158.014 535.468 160.117 530.309C160.117 529.394 160.312 526.033 159.987 525.38C158.882 523.157 161.931 520.021 158.24 519.008C149.47 516.6 151.997 513.792 151.86 509.389C151.568 500.036 155.45 501.005 155.198 493.895C154.214 493.192 150.687 492.732 149.314 492.732C144.174 492.732 151.14 481.491 151.715 477.928Z" fill="#FFEA00" stroke="#FFEA00" stroke-width="1.99997" stroke-miterlimit="22.9256"/>
<path fill-rule="evenodd" clip-rule="evenodd" d="M167.146 452.269C167.146 468.817 153.673 465.783 151.714 477.929C151.139 481.492 144.173 492.732 149.314 492.732C150.687 492.732 154.214 493.192 155.197 493.895C155.45 501.006 151.568 500.037 151.86 509.389C151.997 513.792 149.469 516.6 158.24 519.008C161.931 520.022 158.882 523.157 159.987 525.38C160.312 526.034 160.117 529.394 160.117 530.31C158.014 535.468 147.029 529.525 152.211 536.889C156.014 542.294 157.174 537.648 157.145 546.168C157.144 546.522 157.307 547.029 157.453 547.687C167.487 545.277 178.898 544.211 173.149 554.635C165.45 568.595 163.923 559.456 165.247 578.069C165.296 578.757 169.566 584.259 170.488 585.047C172.494 586.571 180.065 591.973 183.138 591.734C193.429 591.71 202.047 589.641 207.048 581.997C209.066 578.913 220.84 565.291 225.13 565.421C230.856 565.594 228.092 572.189 227.781 575.539C227.232 581.452 224.635 582.804 228.675 589.092C229.671 590.642 237.397 596.044 240.08 596.618C243.254 597.297 244.264 596.799 248.268 597.947C254.437 599.716 259.635 599.828 262.771 594.375C266.19 588.429 264.004 588.563 264.955 586.317C265.727 584.491 269.933 584.095 271.998 587.372C272.187 587.672 275.131 588.099 276.509 587.002C274.623 584.335 270.946 582.809 274.32 581.043C277.734 580.044 277.379 578.668 274.657 576.391C273.026 575.027 273.391 569.669 277.147 569.281C278.023 569.19 280.207 567.088 280.309 567.088C281.114 565.806 277.925 562.945 279.576 562.316C286.056 559.843 282.879 559.788 279.882 558.075C268.716 551.693 280.862 552.838 283.663 551.957C289.422 550.143 287.849 548.046 287.849 543.184C287.849 537.478 295.222 534.295 294.877 532.198C295.75 531.825 294.244 527.284 294.527 526.821C289.768 525.266 296.136 504.284 296.987 503.777C314.241 493.504 291.489 487.288 299.386 482.794C303.52 480.441 296.744 461.792 300.822 459.85C310.877 455.062 307.042 455.53 310.782 448.004C312.906 443.728 306.577 438.42 301.555 438.118C291.165 437.494 300.155 426.888 300.883 423.05C302.441 414.826 297.321 420.258 290.762 416.781C290.896 417.432 290.231 417.944 287.54 418.02C284.324 418.11 280.957 406.345 273.936 413.792C270.848 417.067 265.323 416.477 261.522 417.717C258.647 418.654 252.591 421.816 250.819 422.091C248.77 419.943 250.103 418.984 246.732 418.165C241.412 416.873 240.897 418.757 233.51 416.301C229.561 414.988 216.374 416.032 215.297 412.218C214.589 409.713 212.998 414.362 212.998 407.989C208.755 403.634 194.581 404.565 191.506 401.883C188.978 399.678 177.036 400.963 168.647 400.207C166.516 405.573 163.774 412.568 166.15 413.458C173.42 416.182 170.495 408.594 176.371 419.805C179.593 425.951 187.839 427.297 172.908 430.172C164.492 431.792 168.654 430.688 163.922 438.363C162.332 440.94 167.146 445.613 167.146 452.269Z" fill="#039100" stroke="#039100" stroke-width="1.99997" stroke-miterlimit="22.9256"/>
<path fill-rule="evenodd" clip-rule="evenodd" d="M300.823 459.851C296.746 461.793 303.521 480.442 299.387 482.795C291.49 487.289 314.242 493.506 296.988 503.778C296.137 504.285 289.769 525.268 294.528 526.822C294.245 527.285 295.751 531.826 294.878 532.2C295.223 534.297 287.85 537.479 287.85 543.186C287.85 548.048 289.423 550.145 283.664 551.958C280.863 552.84 268.718 551.695 279.883 558.076C282.88 559.789 286.057 559.844 279.577 562.317C277.927 562.947 281.115 565.808 280.31 567.089C280.208 567.089 278.024 569.192 277.148 569.282C273.392 569.67 273.027 575.029 274.658 576.393C277.379 578.669 277.735 580.045 274.322 581.045C270.947 582.81 274.625 584.336 276.51 587.003C276.76 586.805 276.958 586.556 277.079 586.248C277.72 584.615 282.512 586.621 282.807 588.682C282.991 589.973 285.699 593.642 288.72 592.133C290.619 591.185 294.719 588.682 295.939 588.682C296.888 588.682 297.739 588.56 298.047 589.554C298.075 590.066 302.09 600.106 306.188 597.064C308.892 595.056 307.441 593.356 313.346 594.983C315.5 595.576 329.568 604.045 327.929 594.921C327.596 593.064 323.873 595.245 323.873 590.514C323.873 587.144 323.065 581.885 327.563 579.985C327.633 579.955 334.166 583.956 335.369 581.376C337.272 577.297 338.196 580.463 337.93 575.308C337.844 573.655 356.247 576.622 356.363 573.684C356.46 571.232 358.11 569.103 353.331 567.117C350.984 566.142 350.437 557.807 356.785 558.844C368.589 560.771 363.692 549.614 365.866 548.269C363.761 541.269 367.799 536.894 367.799 530.616C367.799 526.629 375.207 534.527 377.403 520.926C377.655 519.362 379.439 512.506 382.498 514.542C386.118 516.952 389.126 518.219 393.964 518.031C394.532 517.399 395.893 512.382 396.439 512.361C406.008 512.008 408.261 517.855 410.188 506.754C411.3 500.355 411.9 499.392 411.9 492.37C411.9 490.263 411.9 488.156 411.9 486.049C411.948 485.947 412 485.85 412.056 485.759C405.021 479.749 398.996 472.305 392.919 472.305C386.863 472.305 383.034 465.526 383.08 464.405C383.22 460.995 377.953 450.651 381.644 447.858C390.846 440.896 371.077 437.136 371.132 436.352C372.527 416.278 377.384 433.684 379.596 418.808C381.365 406.907 366.01 405.403 363.461 411.274C360.576 417.917 353.44 411.693 345.921 411.224C336.733 410.65 338.817 411.109 336.434 414.522C334.269 417.621 332.199 417.057 330.638 415.431C329.767 415.714 328.984 415.493 328.667 414.582C327.506 411.256 319.021 405.626 317.512 417.124C316.74 423.001 308.974 415.114 305.152 415.114C304.129 415.114 303.104 415.114 302.08 415.114C298.889 417.044 294.709 411.039 293.647 409.262C291.267 405.282 284.047 408.669 289.299 414.836C289.818 415.446 290.639 416.175 290.764 416.783C297.323 420.259 302.443 414.827 300.884 423.051C300.157 426.89 291.167 437.496 301.557 438.12C306.579 438.422 312.908 443.73 310.784 448.005C307.044 455.531 310.879 455.063 300.824 459.851H300.823Z" fill="#920002" stroke="#2B2A29" stroke-width="1.99997" stroke-miterlimit="22.9256"/>
<path fill-rule="evenodd" clip-rule="evenodd" d="M379.595 418.806C377.383 433.682 372.527 416.276 371.131 436.35C371.077 437.134 390.845 440.894 381.643 447.856C377.952 450.649 383.22 460.993 383.079 464.403C383.033 465.524 386.862 472.303 392.919 472.303C398.996 472.303 405.021 479.747 412.056 485.757C413.506 483.42 417.915 484.582 420.186 485.248C424.089 486.392 424.658 490.147 429.712 492.026C430.37 492.271 437.311 494.695 437.287 493.856C437.23 491.8 437.251 489.604 437.742 487.599C438.028 486.425 437.956 485.249 439.571 484.594C442.366 479.87 447.194 481.57 448.588 473.811C450.017 465.854 453.447 465.283 445.776 458.136C443.66 456.164 447.068 454.401 443.487 451.765C438.854 448.353 451.987 446.43 452.514 445.709C459.903 435.581 446.472 434.61 451.57 428.264C460.637 416.976 458.963 424.476 462.001 421.818C467.898 416.659 458.773 417.93 469.23 416.901C473.539 416.476 471.65 405.1 472.543 400.229C473.358 395.786 463.823 397.05 459.1 395.676C455.974 394.767 457.403 387.005 457.403 384.578C460.066 384.578 470.404 385.637 470.404 383.125C470.404 377.596 476.844 379.182 480.334 376.778C481.617 375.894 489.236 378.158 487.211 373.721C486.618 372.421 474.621 376.149 474.621 366.843C472.695 364.555 471.957 358.683 476.875 358.398C479.451 358.249 477.946 361.581 487.136 358.979C492.05 357.588 485.137 347.878 488.532 345.775C495.498 341.46 493.872 337.019 498.602 333.639C500.083 332.58 496.462 328.609 494.124 328.609C491.991 328.305 480.197 320.324 479.717 318.724C478.964 316.212 478.312 316.512 478.312 313.237C478.312 302.908 480.093 304.862 470.681 305.217C463.894 305.472 456.723 304.539 450.184 305.736C443.485 306.961 436.836 304.361 433.378 306.425C428.662 309.239 430.756 306.214 426.876 311.031C425.143 313.185 422.895 312.642 422.806 309.432C422.715 306.152 417.58 304.623 414.738 303.688C411.273 302.547 412.076 304.53 408.719 306.33C403.926 308.899 408.779 317.245 398.368 321C394.126 322.53 396.565 322.112 391.531 322.2C390.939 322.211 387.186 324.003 383.728 325.776C382.308 332.769 375.053 336.052 384.66 335.739C387.797 335.637 390.375 339.434 386.768 343.705C382.928 348.254 388.596 345.318 380.443 350.833C376.944 353.2 384.612 355.254 378.917 366.433C377.838 368.552 377.149 375.835 383.957 375.571C390.198 375.33 397.628 380.746 389.871 386.885C378.493 395.891 380.981 383.096 378.717 380.805C374.631 376.67 369.833 379.903 362.844 377.365C358.87 375.922 348.191 385.302 339.36 382.043C335.497 380.617 332.586 393.173 328.406 394.495C328.352 394.512 318.586 403.273 327.733 402.901C328.889 402.855 328.508 402.71 329.491 403.483C337.064 408.542 333.407 414.53 330.638 415.43C332.2 417.056 334.27 417.619 336.435 414.52C338.818 411.107 336.734 410.649 345.922 411.222C353.441 411.691 360.577 417.916 363.462 411.272C366.011 405.402 381.366 406.905 379.596 418.807L379.595 418.806Z" fill="#008DAC" stroke="#008DAC" stroke-width="1.99997" stroke-miterlimit="22.9256"/>
</g>
</g>
<path d="M97.678 169.15L107.764 176.999L106.892 178.12L103.462 179.531L103.108 178.064L101.072 176.48L98.8243 179.368C99.2112 179.957 99.4654 180.585 99.5868 181.254C99.6977 181.915 99.6263 182.409 99.3724 182.735C99.0203 183.187 98.4162 183.562 97.5601 183.859C96.7122 184.145 95.8521 184.295 94.9797 184.309C94.0968 184.314 93.4554 184.162 93.0555 183.85C92.6978 183.572 92.616 183.145 92.8103 182.57C92.9941 181.986 93.4848 181.16 94.2827 180.092L93.525 179.502C92.9063 180.102 92.184 180.596 91.3583 180.984C90.5221 181.364 89.7023 181.57 88.8989 181.604C88.085 181.63 87.3992 181.425 86.8415 180.991C86.3259 180.59 86.0758 180.032 86.0911 179.318C86.1042 178.584 86.3973 177.85 86.9705 177.113C87.511 176.418 88.2438 175.857 89.1689 175.428C90.0917 174.98 91.0489 174.771 92.0405 174.799C93.0299 174.809 93.8928 175.1 94.6294 175.673L96.5392 177.159L98.5782 174.539L95.3899 172.058L95.046 172.5L91.7689 173.878L90.664 173.018L95.4913 166.815L98.7648 165.409L99.9012 166.294L97.678 169.15ZM91.4975 178.558C91.604 178.421 91.6748 178.265 91.7099 178.09L91.6152 178.016C91.0365 177.565 90.6226 177.294 90.3735 177.202C90.1244 177.109 89.9467 177.131 89.8402 177.268C89.701 177.447 89.6717 177.669 89.7523 177.935C89.8306 178.181 90.0013 178.407 90.2644 178.612C90.4959 178.792 90.721 178.883 90.9396 178.884C91.156 178.866 91.3419 178.758 91.4975 178.558ZM102.004 163.559L112.089 171.408L111.217 172.529L107.788 173.94L107.434 172.473L99.7312 166.479L99.3873 166.921L96.1103 168.299L95.0054 167.439L97.2409 164.567L92.922 165.59C91.8133 165.842 90.9327 166.171 90.28 166.575C89.6192 166.99 89.0554 167.497 88.5887 168.097C88.171 168.634 87.8464 169.192 87.6147 169.772L84.3411 171.178L83.2363 170.318C83.6317 169.528 84.0956 168.791 84.6279 168.107C85.373 167.149 86.2374 166.386 87.2211 165.817C88.2047 165.247 89.4356 164.794 90.9138 164.458L98.7149 162.673L99.8326 161.236L103.106 159.83L104.227 160.703L102.004 163.559ZM111.901 153.837C112.059 153.504 112.273 153.164 112.543 152.817C113.108 152.091 113.872 151.478 114.836 150.977C115.798 150.458 116.779 150.174 117.78 150.126C118.789 150.066 119.641 150.307 120.335 150.847C121.051 151.404 121.475 152.14 121.608 153.054C121.749 153.958 121.58 154.882 121.099 155.826L117.908 157.093L116.803 156.233C117.052 156.022 117.287 155.774 117.508 155.49C117.836 155.069 117.948 154.632 117.844 154.179C117.729 153.719 117.428 153.281 116.939 152.867C116.213 152.302 115.653 152.272 115.26 152.777C114.984 153.154 114.87 153.572 114.918 154.031C114.966 154.491 115.102 155.087 115.326 155.819L115.568 156.615L115.578 156.699L120.534 160.556L119.662 161.677L116.233 163.088L115.945 161.927C115.793 162.231 115.615 162.514 115.41 162.777C114.845 163.503 114.086 164.121 113.133 164.629C112.169 165.129 111.183 165.409 110.173 165.469C109.172 165.517 108.319 165.267 107.614 164.719C106.899 164.162 106.476 163.436 106.345 162.54C106.204 161.636 106.373 160.712 106.854 159.769L110.042 158.473L111.163 159.345C110.913 159.557 110.678 159.805 110.457 160.089C110.13 160.51 110.019 160.956 110.125 161.427C110.229 161.88 110.526 162.313 111.014 162.727C111.372 163.005 111.695 163.155 111.982 163.176C112.268 163.179 112.509 163.054 112.705 162.801C112.99 162.414 113.105 161.972 113.053 161.475C113 160.978 112.85 160.346 112.603 159.579L112.398 158.963L112.387 158.879L108.189 155.612L102.895 162.414L99.6053 163.808L98.5004 162.948L113.289 143.945L116.563 142.539L117.683 143.411L110.449 152.707L111.901 153.837ZM120.626 139.63C121.51 139.709 122.393 139.932 123.274 140.297C124.154 140.643 124.962 141.103 125.698 141.676C126.403 142.225 126.906 142.903 127.206 143.711C127.515 144.509 127.597 145.283 127.453 146.032L132.546 144.015L132.915 145.493L125.296 148.51C124.427 148.932 123.524 149.192 122.586 149.29C121.638 149.38 120.937 149.249 120.485 148.897C120.085 148.585 119.916 148.184 119.978 147.691C120.038 147.18 120.301 146.625 120.768 146.025C121.226 145.436 121.837 144.847 122.6 144.258C122.411 144.044 122.16 143.814 121.844 143.568C120.949 142.872 119.925 142.354 118.771 142.013L115.516 146.196L112.202 147.621L111.097 146.761L119.487 135.981L122.785 134.543L123.918 135.4L120.626 139.63ZM130.828 134.726C130.246 135.474 129.982 136.172 130.034 136.821C130.087 137.47 130.402 138.019 130.981 138.47C131.549 138.912 132.154 139.112 132.795 139.07C133.425 139.02 133.953 138.721 134.379 138.174C134.592 137.901 134.764 137.57 134.897 137.183C134.45 136.954 134.1 136.741 133.848 136.544C133.395 136.192 133.107 135.825 132.983 135.441C132.849 135.049 132.933 134.659 133.236 134.269C133.662 133.722 134.283 133.25 135.098 132.854C135.921 132.447 136.752 132.216 137.591 132.158C138.427 132.083 139.092 132.237 139.587 132.622C139.913 132.876 140.103 133.261 140.158 133.776C140.213 134.292 140.103 134.857 139.828 135.471L143.615 133.958L143.982 135.409L138.147 137.761C137.101 138.823 135.916 139.64 134.591 140.214C133.263 140.769 131.965 141.026 130.696 140.985C129.425 140.925 128.348 140.551 127.464 139.863C126.99 139.495 126.651 138.986 126.447 138.337C126.251 137.677 126.217 136.993 126.347 136.283C126.467 135.565 126.739 134.932 127.165 134.385L128.344 132.87L126.813 131.678L122.097 137.739L118.893 139.023L117.789 138.163L128.954 123.815L132.141 122.52L133.262 123.392L129.086 128.758L133.079 131.866L130.831 134.754L130.828 134.726ZM139.131 115.85L149.217 123.699L148.345 124.82L144.915 126.231L144.561 124.764L142.525 123.18L140.916 125.247C141.303 125.836 141.557 126.464 141.679 127.133C141.79 127.794 141.718 128.287 141.464 128.614C141.145 129.024 140.574 129.357 139.75 129.611C138.925 129.847 138.088 129.956 137.24 129.939C136.382 129.913 135.758 129.748 135.368 129.445C134.979 129.142 134.906 128.672 135.15 128.033C135.393 127.395 135.986 126.47 136.927 125.26L140.047 121.251L136.859 118.77L130.361 127.12L127.047 128.545L125.942 127.685L136.96 113.527L140.234 112.121L141.354 112.993L139.131 115.85Z" fill="black"/>
<path d="M218.605 194.457L228.137 202.971L227.191 204.03L223.673 205.206L223.419 203.719L221.495 202L219.15 204.625L220.639 204.4C220.97 204.57 221.284 204.788 221.583 205.054C222.04 205.463 222.339 205.989 222.479 206.633C222.619 207.276 222.587 207.963 222.383 208.692C222.177 209.403 221.795 210.071 221.235 210.697C220.578 211.433 219.934 211.984 219.303 212.35L215.53 213.003L214.99 211.716C215.96 211.349 216.716 211.014 217.256 210.71C217.786 210.396 218.193 210.081 218.477 209.762C218.797 209.404 218.941 209.023 218.908 208.619C218.875 208.196 218.699 207.842 218.381 207.558C218.003 207.221 217.555 206.982 217.037 206.841C216.52 206.7 215.961 206.675 215.362 206.765L214.533 206.883L214.265 205.411L214.25 205.397L219.153 199.908L216.14 197.217L207.68 206.689L204.291 207.872L203.247 206.939L216.596 191.993L219.957 190.812L221.016 191.758L218.605 194.457ZM223.302 189.199L232.834 197.712L231.888 198.771L228.37 199.947L228.116 198.46L220.837 191.958L220.464 192.376L217.101 193.529L216.057 192.596L221.293 186.734L224.654 185.553L225.713 186.499L223.302 189.199ZM234.517 179.374C234.697 179.052 234.938 178.722 235.24 178.384C235.853 177.698 236.657 177.138 237.652 176.704C238.638 176.261 239.632 176.049 240.634 176.068C241.645 176.078 242.478 176.375 243.134 176.961C243.811 177.565 244.189 178.323 244.268 179.235C244.348 180.146 244.116 181.056 243.573 181.965L240.29 183.029L239.246 182.096C239.509 181.902 239.76 181.67 240 181.402C240.302 181.064 240.418 180.703 240.349 180.32C240.281 179.936 240.042 179.563 239.635 179.199C238.948 178.586 238.392 178.518 237.966 178.995C237.699 179.294 237.574 179.664 237.59 180.107C237.605 180.55 237.713 181.2 237.912 182.058L238.007 182.492L242.706 186.688L241.76 187.747L238.243 188.923L237.989 187.436L237.706 187.183L238.375 192.528L235.598 193.506L234.554 192.573L234.225 189.008C233.171 189.568 232.078 189.871 230.947 189.916C229.826 189.951 228.907 189.648 228.191 189.009L225.566 186.664L224.633 187.708L221.243 188.891L220.199 187.958L236.666 169.522L239.921 168.46L240.98 169.406L233.266 178.042L233.145 178.148L234.517 179.374ZM231.191 186.701C232.175 187.58 232.952 187.701 233.52 187.065C233.805 186.747 233.924 186.353 233.879 185.883C233.833 185.414 233.686 184.728 233.437 183.826C233.392 183.696 233.333 183.492 233.26 183.213L230.68 180.908L228.029 183.876L231.191 186.701ZM242.284 167.945L251.816 176.459L250.87 177.518L247.353 178.694L247.099 177.206L239.82 170.705L239.447 171.123L236.084 172.276L235.04 171.343L240.275 165.481L243.637 164.3L244.696 165.245L242.284 167.945ZM254.402 154.378L251.99 157.078L261.522 165.591L260.576 166.65L257.059 167.826L256.82 166.353C256.62 166.817 256.311 167.283 255.893 167.75C255.254 168.466 254.419 169.071 253.389 169.563C252.368 170.046 251.348 170.297 250.33 170.317C249.301 170.327 248.463 170.044 247.817 169.467C247.141 168.863 246.768 168.11 246.698 167.207C246.618 166.296 246.85 165.385 247.394 164.477L250.662 163.4L251.721 164.346C251.484 164.51 251.255 164.717 251.033 164.965L253.574 164.553L253.298 163.18L249.539 159.823L243.251 166.863L239.875 168.031L238.83 167.099L249.995 154.599L253.343 153.432L254.402 154.378ZM251.346 167.738C251.664 168.022 251.993 168.164 252.333 168.164C252.663 168.155 252.961 168.001 253.227 167.703C253.574 167.315 253.742 166.786 253.733 166.116L250.574 166.62C250.69 166.991 250.946 167.354 251.344 167.71L251.346 167.738ZM256.713 151.791L266.245 160.304L265.299 161.363L261.781 162.539L261.528 161.052L254.248 154.55L253.875 154.968L250.512 156.121L249.468 155.188L254.704 149.326L258.065 148.145L259.124 149.091L256.713 151.791ZM266.501 148.398C265.87 149.104 265.559 149.782 265.568 150.433C265.576 151.085 265.854 151.654 266.401 152.143C266.938 152.622 267.527 152.863 268.17 152.865C268.802 152.857 269.349 152.595 269.811 152.078C270.042 151.819 270.236 151.501 270.394 151.124C269.964 150.865 269.63 150.629 269.391 150.416C268.964 150.034 268.701 149.648 268.603 149.256C268.496 148.856 268.606 148.472 268.935 148.105C269.397 147.587 270.048 147.159 270.888 146.819C271.737 146.469 272.582 146.293 273.422 146.293C274.261 146.274 274.915 146.473 275.382 146.891C275.69 147.166 275.855 147.563 275.874 148.081C275.894 148.599 275.746 149.155 275.43 149.749L279.311 148.496L279.579 149.968L273.598 151.921C272.483 152.909 271.245 153.645 269.884 154.128C268.522 154.592 267.209 154.76 265.946 154.633C264.682 154.487 263.632 154.041 262.797 153.295C262.35 152.896 262.046 152.365 261.886 151.704C261.735 151.032 261.748 150.347 261.926 149.647C262.093 148.939 262.408 148.327 262.87 147.809L264.149 146.377L262.702 145.085L257.586 150.813L254.303 151.877L253.259 150.944L265.37 137.385L268.637 136.308L269.697 137.254L265.167 142.326L268.941 145.696L266.503 148.426L266.501 148.398Z" fill="black"/>
<path d="M75.1542 311.274L72.4914 313.727L81.1489 323.128L80.1044 324.09L76.4893 324.917L76.3949 323.427C76.1502 323.87 75.7974 324.304 75.3364 324.728C74.6303 325.379 73.7407 325.899 72.6679 326.289C71.6048 326.67 70.5653 326.82 69.5495 326.741C68.5246 326.651 67.7187 326.288 67.1316 325.65C66.5174 324.983 66.2194 324.197 66.2378 323.292C66.2472 322.377 66.5666 321.494 67.1961 320.642L70.5534 319.889L71.5153 320.933C71.2642 321.074 71.016 321.257 70.7708 321.483L73.3395 321.32L73.1986 319.927L69.7844 316.22L62.8404 322.615L59.3667 323.448L58.4183 322.418L70.7467 311.065L74.1922 310.23L75.1542 311.274ZM70.8117 324.273C71.1007 324.587 71.4144 324.76 71.7528 324.793C72.0821 324.816 72.3939 324.692 72.6881 324.421C73.0706 324.069 73.2898 323.559 73.3455 322.891L70.1529 323.085C70.2316 323.466 70.4516 323.853 70.8129 324.245L70.8117 324.273ZM82.5916 311.277C81.8953 311.918 81.5196 312.563 81.4646 313.212C81.4096 313.861 81.6305 314.455 82.1272 314.994C82.615 315.524 83.1784 315.821 83.8174 315.885C84.4474 315.939 85.0174 315.731 85.5274 315.262C85.7824 315.027 86.0069 314.729 86.201 314.369C85.7982 314.07 85.4884 313.802 85.2716 313.567C84.8832 313.145 84.6595 312.735 84.6004 312.336C84.5323 311.927 84.6797 311.556 85.0426 311.222C85.5526 310.752 86.2422 310.389 87.1114 310.132C87.9905 309.866 88.8483 309.774 89.6847 309.856C90.5219 309.919 91.1528 310.181 91.5773 310.642C91.8573 310.946 91.982 311.357 91.9512 311.874C91.9205 312.392 91.719 312.931 91.3468 313.491L95.3316 312.622L95.4542 314.113L89.3119 315.474C88.1058 316.349 86.8021 316.961 85.4006 317.309C84 317.638 82.6773 317.678 81.4326 317.428C80.1886 317.16 79.1873 316.614 78.4286 315.79C78.0221 315.349 77.7714 314.791 77.6765 314.118C77.5913 313.435 77.6713 312.754 77.9162 312.075C78.1522 311.386 78.5251 310.807 79.0351 310.338L80.4475 309.037L79.1333 307.61L73.4839 312.813L70.1132 313.551L69.1648 312.522L82.5378 300.206L85.895 299.452L86.857 300.497L81.8549 305.103L85.2827 308.826L82.5905 311.305L82.5916 311.277ZM93.8867 294.023L102.544 303.424L101.5 304.386L97.8846 305.214L97.7767 303.709L96.0289 301.811L94.1017 303.586C94.3866 304.23 94.5339 304.892 94.5436 305.572C94.5444 306.242 94.3927 306.717 94.0887 306.997C93.7062 307.349 93.0879 307.583 92.2339 307.699C91.3807 307.796 90.5374 307.766 89.704 307.609C88.8616 307.442 88.2733 307.177 87.9391 306.814C87.6049 306.451 87.6104 305.975 87.9555 305.385C88.3006 304.796 89.0371 303.981 90.165 302.943L93.9018 299.501L91.165 296.53L83.3824 303.697L79.8793 304.558L78.9309 303.528L92.1273 291.375L95.5875 290.526L96.5495 291.571L93.8867 294.023ZM99.0843 289.236L107.742 298.637L106.697 299.599L103.082 300.427L102.974 298.922L96.3626 291.743L95.9507 292.122L92.4916 292.942L91.5432 291.913L97.325 286.588L100.785 285.74L101.747 286.784L99.0843 289.236ZM112.618 276.773L109.955 279.225L118.612 288.626L117.568 289.588L113.953 290.416L113.845 288.911L112.842 287.822C112.629 288.182 112.341 288.528 111.979 288.863C111.302 289.486 110.447 289.974 109.413 290.328C108.38 290.663 107.361 290.777 106.356 290.669C105.36 290.553 104.565 290.171 103.968 289.524L101.584 286.934L100.554 287.883L97.0656 288.73L96.1172 287.7L108.196 276.577L111.656 275.728L112.618 276.773ZM104.306 284.428L107.178 287.547C108.072 288.518 108.833 288.714 109.461 288.136C109.775 287.847 109.932 287.467 109.932 286.995C109.933 286.523 109.853 285.826 109.693 284.904C109.661 284.771 109.622 284.562 109.577 284.277L107.233 281.732L104.306 284.428ZM118.173 292.022C118.81 291.435 119.616 290.992 120.591 290.692C121.566 290.392 122.523 290.3 123.462 290.414C124.41 290.538 125.154 290.894 125.696 291.483C126.085 291.904 126.285 292.535 126.298 293.376C126.32 294.226 126.176 295.083 125.866 295.948C125.556 296.832 125.142 297.513 124.622 297.992C124.033 298.534 123.507 298.946 123.042 299.229L116.845 300.559L116.723 299.039L117.978 298.808C119.292 298.522 120.474 297.896 121.523 296.93C121.974 296.514 122.31 296.042 122.53 295.513C122.75 294.985 122.842 294.465 122.806 293.954C122.77 293.462 122.612 293.063 122.332 292.759C122.106 292.514 121.848 292.362 121.558 292.303C121.277 292.254 121.024 292.333 120.798 292.541C120.572 292.748 120.446 293.064 120.419 293.487C120.383 293.92 120.448 294.404 120.614 294.939L117.272 295.679L116.31 294.635C116.448 294.253 116.698 293.806 117.059 293.293C117.419 292.798 117.79 292.374 118.173 292.022ZM117.28 272.48C118.139 272.704 118.973 273.068 119.782 273.573C120.593 274.06 121.314 274.646 121.946 275.333C122.552 275.99 122.936 276.742 123.099 277.588C123.272 278.426 123.226 279.202 122.961 279.918L128.316 278.765L128.437 280.285L120.426 282.007C119.5 282.281 118.566 282.389 117.624 282.331C116.674 282.263 116.005 282.019 115.616 281.597C115.273 281.224 115.173 280.8 115.315 280.325C115.458 279.831 115.809 279.326 116.368 278.811C116.917 278.306 117.616 277.825 118.466 277.369C118.315 277.127 118.104 276.859 117.833 276.565C117.066 275.731 116.141 275.051 115.058 274.525L111.16 278.116L107.656 278.977L106.708 277.947L116.756 268.693L120.246 267.818L121.223 268.849L117.28 272.48Z" fill="black"/>
<path d="M194.304 354.13V373.3H192.174L187.344 370.54L188.754 368.77V364.9H183.474L185.214 366.34C185.354 366.88 185.424 367.45 185.424 368.05C185.424 368.97 185.134 369.83 184.554 370.63C183.974 371.43 183.174 372.08 182.154 372.58C181.154 373.06 180.024 373.3 178.764 373.3C177.284 373.3 176.024 373.13 174.984 372.79L170.484 369.22L171.384 367.33C172.764 368.05 173.894 368.56 174.774 368.86C175.654 369.14 176.414 369.28 177.054 369.28C177.774 369.28 178.344 369.06 178.764 368.62C179.204 368.16 179.424 367.61 179.424 366.97C179.424 366.21 179.244 365.47 178.884 364.75C178.524 364.03 177.994 363.38 177.294 362.8L176.334 361.99L177.714 360.22V360.19H188.754V354.13H169.704L164.994 351.52V349.42H195.054L199.734 352V354.13H194.304ZM204.88 354.13V373.3H202.75L197.92 370.54L199.33 368.77V354.13H198.49L193.84 351.52V349.42H205.63L210.31 352V354.13H204.88ZM233.877 354.16V373.33H231.747L226.917 370.57L228.327 368.8V365.38C227.247 365.96 225.797 366.62 223.977 367.36L219.507 364.78V362.65L220.317 362.38C220.197 361.64 219.997 361.12 219.717 360.82C219.437 360.52 219.037 360.37 218.517 360.37C217.677 360.37 216.987 360.69 216.447 361.33C215.907 361.97 215.637 362.78 215.637 363.76C215.637 364.64 215.847 365.39 216.267 366.01C216.687 366.61 217.387 367.2 218.367 367.78L221.337 369.52L220.257 371.5L209.847 365.47C209.707 364.63 209.637 363.8 209.637 362.98C209.637 361.92 209.887 360.92 210.387 359.98C210.907 359.02 211.677 358.24 212.697 357.64C213.717 357.02 214.977 356.71 216.477 356.71C217.837 356.71 219.207 357.06 220.587 357.76C221.987 358.44 223.187 359.35 224.187 360.49C226.027 359.41 227.397 358.36 228.297 357.34V354.13H207.027L202.377 351.52V349.42H234.597L239.277 352L239.307 354.16H233.877ZM257.211 354.13V373.3H255.081L250.251 370.54L251.661 368.77V364.9H247.731C247.391 365.9 246.881 366.78 246.201 367.54C245.521 368.28 244.871 368.65 244.251 368.65C243.471 368.65 242.551 368.28 241.491 367.54C240.451 366.78 239.551 365.89 238.791 364.87C238.031 363.83 237.651 362.94 237.651 362.2C237.651 361.46 238.141 360.94 239.121 360.64C240.101 360.34 241.741 360.19 244.041 360.19H251.661V354.13H235.791L231.051 351.52V349.42H257.961L262.641 352V354.13H257.211ZM267.81 354.13V373.3H265.68L260.85 370.54L262.26 368.77V354.13H261.42L256.77 351.52V349.42H268.56L273.24 352V354.13H267.81Z" fill="black"/>
<path d="M421.324 394.42V407.2H419.904L416.684 405.36L417.624 404.18V401.6H413.284C413.058 402.267 412.718 402.853 412.264 403.36C411.811 403.853 411.378 404.1 410.964 404.1C410.391 404.1 409.724 403.853 408.964 403.36C408.218 402.867 407.571 402.28 407.024 401.6C406.478 400.907 406.204 400.307 406.204 399.8C406.204 399.347 406.491 399.02 407.064 398.82C407.638 398.607 408.591 398.487 409.924 398.46V394.42H404.964L401.804 392.68V391.28H421.824L424.944 393V394.42H421.324ZM417.624 394.42H413.624V398.46H417.624V394.42ZM421.348 387.9H419.928L417.648 386.98V383.92H419.048L421.348 384.82V387.9ZM433.381 396.52C434.314 396.867 435.161 397.34 435.921 397.94C436.694 398.54 437.307 399.22 437.761 399.98C438.214 400.727 438.441 401.48 438.441 402.24C438.441 403.187 438.161 404.04 437.601 404.8C437.054 405.547 436.294 406.133 435.321 406.56C434.361 406.987 433.281 407.2 432.081 407.2C430.801 407.2 429.541 406.893 428.301 406.28C427.061 405.667 426.054 404.873 425.281 403.9C424.507 402.913 424.121 401.913 424.121 400.9C424.121 400.073 424.367 399.313 424.861 398.62C425.367 397.913 426.021 397.36 426.821 396.96C427.621 396.56 428.447 396.36 429.301 396.36H429.681V394.42H422.641L419.661 392.68V391.28H439.921L442.901 393V394.42H433.381V396.52ZM434.441 400.84C434.441 399.88 434.087 399.207 433.381 398.82V399.5H430.961C430.081 399.5 429.354 399.793 428.781 400.38C428.221 400.953 427.941 401.78 427.941 402.86C427.941 403.513 428.147 404.047 428.561 404.46C428.987 404.86 429.541 405.06 430.221 405.06C431.567 405.06 432.607 404.68 433.341 403.92C434.074 403.16 434.441 402.127 434.441 400.82V400.84ZM444.865 394.42V407.2H443.445L440.225 405.36L441.165 404.18V394.42H440.605L437.505 392.68V391.28H445.365L448.485 393V394.42H444.865Z" fill="black"/>
<path d="M327.132 501.42H323.512V514.2H322.092L318.872 512.36L319.812 511.18V509.7C319.412 509.82 318.966 509.88 318.472 509.88C317.552 509.88 316.592 509.66 315.592 509.22C314.606 508.767 313.779 508.16 313.112 507.4C312.459 506.64 312.132 505.82 312.132 504.94V501.42H310.732L307.592 499.68V498.28H324.012L327.132 500V501.42ZM315.832 501.42V505.66C315.832 506.98 316.259 507.64 317.112 507.64C317.539 507.64 317.912 507.467 318.232 507.12C318.552 506.773 318.966 506.207 319.472 505.42C319.539 505.3 319.652 505.12 319.812 504.88V501.42H315.832ZM333.47 501.42C333.95 502.167 334.317 503 334.57 503.92C334.837 504.827 334.97 505.747 334.97 506.68C334.97 507.573 334.743 508.387 334.29 509.12C333.85 509.853 333.29 510.393 332.61 510.74L337.33 513.52L336.39 514.72L329.33 510.56C328.463 510.133 327.703 509.58 327.05 508.9C326.397 508.207 326.07 507.573 326.07 507C326.07 506.493 326.283 506.113 326.71 505.86C327.15 505.593 327.75 505.46 328.51 505.46C329.257 505.46 330.097 505.58 331.03 505.82C331.083 505.54 331.11 505.2 331.11 504.8C331.11 503.667 330.89 502.54 330.45 501.42H325.15L321.99 499.68V498.28H335.65L338.81 500L338.83 501.42H333.47ZM349.205 501.42V514.2H347.785L344.565 512.36L345.505 511.18V508.6H343.285C342.005 508.6 341.365 509.187 341.365 510.36C341.365 510.813 341.458 511.193 341.645 511.5C341.832 511.793 342.165 512.087 342.645 512.38L343.885 513.18L342.945 514.38L337.505 511.16C337.412 510.707 337.365 510.173 337.365 509.56C337.365 508.187 337.745 507.16 338.505 506.48C339.278 505.8 340.445 505.46 342.005 505.46H345.505V501.42H336.005L332.885 499.68V498.28H349.705L352.825 500V501.42H349.205ZM346.591 516.4C347.458 516.4 348.351 516.62 349.271 517.06C350.191 517.5 350.958 518.08 351.571 518.8C352.185 519.533 352.491 520.3 352.491 521.1C352.491 521.673 352.211 522.273 351.651 522.9C351.091 523.54 350.405 524.073 349.591 524.5C348.765 524.94 347.998 525.16 347.291 525.16C346.491 525.16 345.825 525.107 345.291 525L339.831 521.78L340.771 520.58L341.851 521.26C343.011 521.94 344.305 522.28 345.731 522.28C346.345 522.28 346.911 522.16 347.431 521.92C347.951 521.68 348.371 521.36 348.691 520.96C348.998 520.573 349.151 520.173 349.151 519.76C349.151 519.427 349.065 519.14 348.891 518.9C348.718 518.673 348.478 518.56 348.171 518.56C347.865 518.56 347.558 518.707 347.251 519C346.931 519.293 346.651 519.693 346.411 520.2L343.451 518.48V517.06C343.811 516.873 344.298 516.713 344.911 516.58C345.511 516.46 346.071 516.4 346.591 516.4ZM359.193 501.42C359.673 502.167 360.039 503 360.293 503.92C360.559 504.827 360.693 505.747 360.693 506.68C360.693 507.573 360.466 508.387 360.013 509.12C359.573 509.853 359.013 510.393 358.333 510.74L363.053 513.52L362.113 514.72L355.053 510.56C354.186 510.133 353.426 509.58 352.773 508.9C352.119 508.207 351.793 507.573 351.793 507C351.793 506.493 352.006 506.113 352.433 505.86C352.873 505.593 353.473 505.46 354.233 505.46C354.979 505.46 355.819 505.58 356.753 505.82C356.806 505.54 356.833 505.2 356.833 504.8C356.833 503.667 356.613 502.54 356.173 501.42H350.873L347.713 499.68V498.28H361.373L364.533 500L364.553 501.42H359.193Z" fill="black"/>
<path d="M191.826 488.42V501.2H190.406L187.186 499.36L187.306 499.2C186.439 499.533 185.526 499.7 184.566 499.7C183.339 499.7 182.153 499.473 181.006 499.02C179.859 498.567 178.933 497.98 178.226 497.26C177.519 496.527 177.166 495.78 177.166 495.02C177.166 494.607 177.253 494.207 177.426 493.82C177.613 493.433 177.873 493.08 178.206 492.76C177.366 492.4 176.673 491.94 176.126 491.38C175.593 490.807 175.326 490.167 175.326 489.46C175.326 489.1 175.399 488.753 175.546 488.42H174.066L170.926 486.68V485.28H192.346L195.466 487L195.446 488.42H191.826ZM182.666 497.44C183.759 497.44 184.713 497.18 185.526 496.66C186.353 496.14 187.213 495.367 188.106 494.34V488.42H182.406V489.34C182.033 489.247 181.673 489.2 181.326 489.2C180.686 489.2 180.179 489.313 179.806 489.54C179.446 489.767 179.266 490.06 179.266 490.42C179.266 490.687 179.319 490.92 179.426 491.12C179.546 491.307 179.719 491.487 179.946 491.66C180.413 491.487 180.886 491.373 181.366 491.32L184.506 493.06V494.46C184.186 494.407 183.873 494.38 183.566 494.38C183.033 494.38 182.579 494.487 182.206 494.7C181.846 494.9 181.579 495.153 181.406 495.46C181.233 495.767 181.146 496.073 181.146 496.38C181.146 497.087 181.659 497.44 182.686 497.44H182.666ZM207.432 488.42V501.2H206.012L202.792 499.36L203.732 498.18V495.6H201.112C200.885 496.267 200.545 496.853 200.092 497.36C199.638 497.853 199.205 498.1 198.792 498.1C198.272 498.1 197.658 497.853 196.952 497.36C196.258 496.853 195.658 496.26 195.152 495.58C194.645 494.887 194.392 494.293 194.392 493.8C194.392 493.307 194.718 492.96 195.372 492.76C196.025 492.56 197.118 492.46 198.652 492.46H203.732V488.42H193.152L189.992 486.68V485.28H207.932L211.052 487V488.42H207.432ZM230.018 488.42H226.398V501.2H224.978L221.758 499.36L222.698 498.18V495.84C222.311 495.947 221.904 496 221.478 496C220.958 496 220.484 495.913 220.058 495.74L218.778 494.72C218.631 495.387 218.351 495.987 217.938 496.52C217.538 497.053 217.071 497.46 216.538 497.74L221.258 500.52L220.318 501.72L213.258 497.56C212.391 497.133 211.631 496.58 210.978 495.9C210.324 495.207 209.998 494.573 209.998 494C209.998 493.493 210.211 493.113 210.638 492.86C211.078 492.593 211.678 492.46 212.438 492.46C213.184 492.46 214.024 492.58 214.958 492.82C215.011 492.54 215.038 492.2 215.038 491.8C215.038 490.667 214.818 489.54 214.378 488.42H209.078L205.918 486.68V485.28H226.878L230.018 487V488.42ZM220.318 492.76C220.744 492.76 221.144 492.68 221.518 492.52C221.891 492.347 222.284 492.047 222.698 491.62V488.42H217.398C218.144 489.607 218.611 490.933 218.798 492.4C219.384 492.64 219.891 492.76 220.318 492.76ZM233.463 488.42V501.2H232.043L228.823 499.36L229.763 498.18V488.42H229.203L226.103 486.68V485.28H233.963L237.083 487V488.42H233.463ZM251.653 488.4H248.033V501.18H246.613L243.393 499.34L244.333 498.18C243.853 498.34 243.3 498.42 242.673 498.42C241.713 498.42 240.707 498.2 239.653 497.76C238.613 497.32 237.747 496.727 237.053 495.98C236.36 495.22 236.013 494.407 236.013 493.54C236.013 492.633 236.327 491.853 236.953 491.2C237.58 490.533 238.413 490.1 239.453 489.9L242.433 491.62V493.04C242.113 492.973 241.773 492.94 241.413 492.94C240.867 492.94 240.44 493.127 240.133 493.5C239.84 493.86 239.693 494.36 239.693 495C239.693 495.427 239.807 495.767 240.033 496.02C240.26 496.26 240.573 496.38 240.973 496.38C241.493 496.38 241.953 496.2 242.353 495.84C242.767 495.467 243.273 494.88 243.873 494.08L244.353 493.46V488.42H234.913L231.793 486.68V485.28H248.553L251.653 486.98V488.4ZM248.071 481.9H246.651L244.371 480.98V477.92H245.771L248.071 478.82V481.9ZM265.543 488.42V501.2H264.123L260.903 499.36L261.843 498.18V488.42H258.483V494.56C258.483 495.12 258.309 495.673 257.963 496.22C257.616 496.767 257.183 497.22 256.663 497.58C256.156 497.927 255.683 498.1 255.243 498.1C254.696 498.1 254.049 497.86 253.303 497.38C252.569 496.887 251.936 496.3 251.403 495.62C250.869 494.94 250.603 494.34 250.603 493.82C250.603 493.38 250.803 493.047 251.203 492.82C251.603 492.58 252.189 492.46 252.963 492.46C253.469 492.46 254.076 492.533 254.783 492.68V488.42H249.343L246.203 486.68V485.28H266.043L269.163 487V488.42H265.543ZM272.603 488.42V501.2H271.183L267.963 499.36L268.903 498.18V488.42H268.343L265.483 486.82H264.003C262.603 485.94 261.55 485.027 260.843 484.08C260.137 483.12 259.783 482.247 259.783 481.46C259.783 480.833 260.01 480.327 260.463 479.94C260.917 479.553 261.543 479.36 262.343 479.36C263.997 479.36 265.49 479.833 266.823 480.78C268.157 481.727 269.423 483.227 270.623 485.28H273.103L276.223 487V488.42H272.603ZM268.763 485.28C268.137 484.387 267.477 483.7 266.783 483.22C266.077 482.74 265.39 482.5 264.723 482.5C264.363 482.5 264.097 482.593 263.923 482.78C263.737 482.953 263.643 483.193 263.643 483.5C263.643 483.9 263.79 484.36 264.083 484.88C264.363 485.387 264.75 485.88 265.243 486.36V485.28H268.763Z" fill="black"/>
<path d="M78.9035 467.4V480.18H77.4835L74.2635 478.34L75.2035 477.16V473.88C74.7902 474.147 74.3702 474.333 73.9435 474.44C73.5168 474.547 73.0235 474.6 72.4635 474.6C72.0902 474.6 71.7502 474.573 71.4435 474.52C71.3502 475 71.0568 475.467 70.5635 475.92C70.0835 476.36 69.4968 476.72 68.8035 477C68.1102 477.28 67.4168 477.42 66.7235 477.42C66.4568 477.42 66.1302 477.407 65.7435 477.38C65.3568 477.34 65.0102 477.3 64.7035 477.26L59.3835 474.16L60.3035 472.96L61.5435 473.66C62.5702 474.26 63.7102 474.56 64.9635 474.56C65.3768 474.56 65.7835 474.493 66.1835 474.36C66.5835 474.213 66.9102 474.033 67.1635 473.82C67.4168 473.593 67.5435 473.36 67.5435 473.12C67.5302 472.787 67.3502 472.467 67.0035 472.16C66.6702 471.84 66.0902 471.46 65.2635 471.02V469.62C65.6902 469.393 66.0235 469.113 66.2635 468.78C66.5035 468.433 66.6235 468.06 66.6235 467.66C66.6235 467.38 66.5568 467.173 66.4235 467.04C66.3035 466.907 66.1035 466.84 65.8235 466.84C65.3568 466.84 64.8635 467.027 64.3435 467.4C63.8235 467.76 63.3435 468.26 62.9035 468.9L59.8035 467.18V465.76C60.3235 465.267 61.0435 464.86 61.9635 464.54C62.8835 464.22 63.7702 464.06 64.6235 464.06C65.5835 464.06 66.5235 464.3 67.4435 464.78C68.3635 465.247 69.1102 465.853 69.6835 466.6C70.2702 467.347 70.5635 468.107 70.5635 468.88C70.5635 469.347 70.4102 469.807 70.1035 470.26C69.7968 470.713 69.3768 471.107 68.8435 471.44L69.3235 471.74C69.9768 472.047 70.4968 472.2 70.8835 472.2C71.6435 472.2 72.4035 471.907 73.1635 471.32C73.9368 470.72 74.6168 469.907 75.2035 468.88V467.42H74.3035L71.1835 465.68V464.28H79.4235L82.5235 466V467.4H78.9035ZM78.9223 460.9H77.5023L75.2223 459.98V456.92H76.6223L78.9223 457.82V460.9ZM97.1143 467.42H93.4943V480.2H92.0743L88.8543 478.36L89.7943 477.2C89.3143 477.36 88.761 477.44 88.1343 477.44C87.1743 477.44 86.1676 477.22 85.1143 476.78C84.0743 476.34 83.2076 475.747 82.5143 475C81.821 474.24 81.4743 473.427 81.4743 472.56C81.4743 471.653 81.7876 470.873 82.4143 470.22C83.041 469.553 83.8743 469.12 84.9143 468.92L87.8943 470.64V472.06C87.6143 471.993 87.3076 471.96 86.9743 471.96L88.9743 473.58L89.8143 472.46V467.42H80.3743L77.2543 465.68V464.28H94.0143L97.1143 466V467.42ZM85.1143 474.04C85.1143 474.467 85.2276 474.807 85.4543 475.06C85.681 475.3 85.9943 475.42 86.3943 475.42C86.9143 475.42 87.421 475.193 87.9143 474.74L85.4343 472.72C85.2343 473.053 85.1343 473.487 85.1343 474.02L85.1143 474.04ZM102.764 471.6C102.444 471.6 102.164 471.707 101.924 471.92C101.684 472.12 101.564 472.36 101.564 472.64C101.564 472.84 101.624 473.04 101.744 473.24C102.224 473.08 102.624 472.967 102.944 472.9C103.277 472.833 103.604 472.8 103.924 472.8C104.844 472.8 105.817 473.033 106.844 473.5C107.884 473.967 108.75 474.547 109.444 475.24C110.137 475.933 110.484 476.593 110.484 477.22C110.484 477.7 110.15 478.173 109.484 478.64C108.83 479.093 107.97 479.467 106.904 479.76C105.85 480.053 104.757 480.2 103.624 480.2C103.304 480.2 102.937 480.18 102.524 480.14C102.11 480.113 101.784 480.08 101.544 480.04L94.8437 474.56L95.8237 473.4L98.7637 475.8C99.4437 476.347 100.13 476.74 100.824 476.98C101.517 477.207 102.177 477.32 102.804 477.32C103.484 477.32 104.097 477.26 104.644 477.14C105.19 477.02 105.617 476.86 105.924 476.66C106.23 476.46 106.384 476.247 106.384 476.02C106.384 475.847 106.297 475.687 106.124 475.54C105.964 475.393 105.777 475.32 105.564 475.32C105.164 475.32 104.77 475.553 104.384 476.02C103.237 475.78 102.144 475.4 101.104 474.88C100.064 474.347 99.2237 473.76 98.5837 473.12C97.9437 472.467 97.6237 471.853 97.6237 471.28C97.6237 470.827 97.797 470.38 98.1437 469.94C98.5037 469.5 98.9703 469.14 99.5437 468.86C100.117 468.58 100.697 468.44 101.284 468.44H104.524V467.42H94.6437L91.5037 465.68V464.28H110.184L113.324 466V467.42H108.224V471.58H102.764V471.6Z" fill="black"/>
</g>
<defs>
<clipPath id="clip0_120_37">
<rect width="500" height="600" fill="white"/>
</clipPath>
</defs>
</svg>
