<svg width="500" height="600" viewBox="0 0 500 600" fill="none" xmlns="http://www.w3.org/2000/svg">
<g opacity="0.5" clip-path="url(#clip0_327_2)">
<mask id="mask0_327_2" style="mask-type:luminance" maskUnits="userSpaceOnUse" x="0" y="0" width="500" height="600">
<path d="M500 0H0V600H500V0Z" fill="white"/>
</mask>
<g mask="url(#mask0_327_2)">
<path fill-rule="evenodd" clip-rule="evenodd" d="M26.7164 193.769C26.7485 202.448 17.0078 197.889 24.4721 211.569C30.9774 210.321 41.8855 209.293 46.4485 212.318C52.4635 216.306 66.3636 208.23 68.5595 212.074C72.9404 219.744 79.5904 212.865 85.528 220.475C87.6157 223.15 110.658 216.208 113.084 226.065C113.798 228.967 118.625 231.176 122.642 225.996C125.972 221.702 135.111 219.682 137.11 224.217C138.992 228.487 145.495 229.959 150.489 230.342C153.611 230.581 166.866 230.385 174.562 230.418C174.943 216.814 181.579 220.248 184.779 209.715C186.089 205.401 182.703 195.932 184.103 187.308C185.354 179.607 178.588 176.428 186.452 166.635C189.389 162.978 182.763 156.966 176.219 156.814C172.897 156.737 167.85 153.974 161.488 154.164C158.498 154.254 158.665 148.534 158.665 147.215C157.643 145.64 156.64 131.469 158.02 130.818C160.783 129.515 161.999 130.306 167.78 127.351C180.718 120.736 174.982 131.417 183.599 117.988C184.107 117.196 185.481 115.691 187.082 113.996C183.368 112.785 182.866 109.521 183.397 103.581C183.702 100.163 191.483 94.5903 191.483 93.2251C191.483 86.6482 187.49 82.8008 196.514 82.8008C200.897 82.8008 201.337 83.3091 200.981 81.4874C200.082 76.8933 196.777 79.1255 196.777 72.3765C196.777 67.4025 189.725 57.7945 192.189 57.4082C192.189 55.0205 194.215 53.0626 196.746 51.7951C205.483 47.4206 197.93 42.2818 194.659 38.606C188.196 31.3427 193.801 27.3467 195.305 22.393C196.446 18.6332 214.507 11.9796 206.425 13.3505C182.627 17.3883 194.55 4.75154 168.284 4.75154C160.404 4.75154 157.755 -0.400624 157.575 1.16244C156.221 12.9995 164.7 11.021 166.166 14.6184C170.345 24.8746 155.605 12.6862 154.752 18.6278C153.746 25.6457 154.311 21.8773 150.488 28.3346C142.371 42.0425 160.603 37.7851 161.841 44.5782C164.193 57.4912 152.448 52.4928 152.665 48.3205C153.202 38.0159 146.614 47.2986 141.282 43.0893C135.402 38.4465 122.669 39.0741 121.259 45.1586C120.684 47.639 118.101 49.5975 118.083 49.6568C113.227 50.6913 114.067 48.299 111.055 47.763C99.2424 45.6602 104.059 54.1865 103.231 59.2794C102.921 61.1883 92.3527 64.2053 91.9694 67.0311C90.9967 74.1987 87.6195 76.0461 96.9702 79.685C114.484 86.5016 100.953 91.9813 93.4115 96.5245C84.1747 102.089 76.747 97.1203 74.9707 100.954C72.1768 106.983 65.2866 108.667 58.0933 106.053C58.4211 106.388 58.7757 106.76 58.8297 107.192C60.5452 120.915 69.4823 118.689 55.5629 135.104C50.2192 141.406 55.2703 141.199 55.2703 147.575C55.2703 161.575 54.6258 160.314 40.48 160.314C35.5586 160.314 34.7977 167.991 34.42 171.074C33.7161 176.825 26.7122 192.286 26.7172 193.771L26.7164 193.769Z" fill="white" stroke="#E98016" stroke-width="1.99997" stroke-miterlimit="22.9256"/>
<path fill-rule="evenodd" clip-rule="evenodd" d="M187.771 165.413C179.906 175.206 186.672 178.385 185.422 186.086C184.021 194.71 187.407 204.179 186.097 208.493C182.898 219.026 176.262 215.592 175.881 229.195C178.977 229.208 181.174 229.258 181.45 229.387C185.937 231.49 195.661 228.443 190.303 236.337C188.549 238.92 176.612 241.415 201.212 241.415C201.298 241.415 201.43 241.44 201.602 241.483C203.263 239.775 206.174 238.877 208.859 238.877C215.17 238.877 230.737 232.707 230.737 228.988C230.737 214.773 234.972 227.637 234.972 218.831C234.972 209.01 257.629 217.877 257.234 211.637C256.779 204.448 242.281 208.091 251.028 198.65C252.92 197.799 263.345 195.457 265.789 196.886C281.719 206.206 272.839 190.443 279.753 185.797C285.528 181.917 274.143 172.747 281.023 172.991C295.592 173.507 291.735 156.861 295.724 156.953C306.438 157.201 296.451 151.82 295.633 150.737C285.517 137.339 312.433 146.43 312.461 135.814C312.473 130.866 330.527 114.418 323.985 115.859C315.427 117.744 314.696 115.878 307.843 114.988C293.395 113.112 300.51 115.213 298.607 109.131C289.613 107.563 288.434 113.229 288.434 103.762C288.434 95.3968 290.471 94.1181 281.991 95.2548C265.376 97.4818 273.49 89.818 270.023 88.7027C262.623 86.3217 267.65 96.011 256.412 96.011C252.911 96.011 245.861 104.089 244.646 106.611C238.084 120.224 247.115 119.8 227.153 119.8C218.477 119.8 230.394 110.987 216.415 112.56C204.738 113.875 212.101 105.084 204.094 107.773C204.094 109.942 200.979 112.623 199.153 112.851C194.07 113.485 190.647 113.505 188.4 112.773C186.799 114.469 185.426 115.974 184.917 116.766C176.301 130.195 182.037 119.514 169.098 126.129C163.318 129.084 162.101 128.292 159.338 129.596C157.959 130.246 158.962 144.418 159.983 145.992C159.983 147.312 159.817 153.031 162.807 152.942C169.169 152.752 174.215 155.515 177.537 155.592C184.082 155.744 190.708 161.756 187.771 165.413Z" fill="white" stroke="#9702CC" stroke-width="1.99997" stroke-miterlimit="22.9256"/>
<path fill-rule="evenodd" clip-rule="evenodd" d="M166.916 254.085C167.394 252.418 173.643 249.113 175.829 245.276C176.731 243.693 181.564 243.671 186.139 241.984C181.734 241.075 187.777 239.337 188.985 237.557C194.343 229.663 184.619 232.71 180.132 230.607C179.856 230.478 177.659 230.428 174.563 230.416C166.866 230.384 153.612 230.579 150.49 230.34C145.495 229.957 138.993 228.485 137.11 224.215C135.112 219.68 125.973 221.7 122.642 225.994C118.626 231.174 113.799 228.965 113.084 226.063C110.659 216.206 87.6163 223.149 85.5285 220.473C79.591 212.863 72.9413 219.742 68.5601 212.072C66.3642 208.228 52.4641 216.305 46.4491 212.317C41.886 209.291 30.9779 210.32 24.4726 211.567C24.3989 211.433 24.3275 211.3 24.2576 211.169C21.9951 212.64 19.7591 213.848 18.2195 213.968C17.5855 215.356 12.229 215.837 8.78228 225.37C6.29795 232.242 10.2947 233.981 9.19545 236.375C14.9545 239.179 20.1039 231.925 30.5704 236.978C35.101 239.165 38.6869 250.713 38.6869 255.398C38.6869 268.127 41.4142 256.573 49.7469 269.298L49.979 269.832C49.979 280.164 41.0415 273.399 41.5095 288.543C41.545 289.69 39.9423 292.229 39.7453 293.621C38.8301 295.152 38.6865 294.892 38.6865 296.294C35.0386 305.523 32.2953 301.56 38.7466 312.076C40.2333 314.5 40.4405 319.251 38.0813 321.298C35.7886 323.287 35.5489 323.128 33.5696 324.627C25.7893 330.52 42.8579 331.698 30.2627 340.863C28.026 342.49 25.2495 344.267 24.3755 346.524C31.5911 346.825 37.8768 347.056 37.98 347.08C40.0855 347.216 49.094 342.648 50.946 341.535C58.4224 337.045 70.6123 341.37 73.7124 345.743C79.261 353.57 86.2671 348.784 92.9093 353.38C103.51 360.715 121.01 353.618 127.97 354.929C128.03 345.434 129.054 349.55 133.906 341.175C137.484 335 124.086 343.056 124.086 329.529C124.086 322.231 125.804 322.594 120.587 317.943C117.743 315.408 123.98 314.537 123.733 308.657C123.658 306.874 124.439 299.561 124.439 296.316C124.439 288.914 124.072 289.611 133.261 289.611C136.036 289.611 130.022 281.115 140.904 281.325C143.813 281.381 144.758 279.235 145.612 277.582C143.577 274.574 154.063 270.581 157.021 267.036C161.576 261.576 161.887 271.638 166.916 254.084V254.085Z" fill="white" stroke="#0F59E8" stroke-width="1.99997" stroke-miterlimit="22.9256"/>
<path fill-rule="evenodd" clip-rule="evenodd" d="M175.83 245.278C173.644 249.115 167.395 252.42 166.917 254.088C161.888 271.642 161.577 261.58 157.022 267.04C154.064 270.585 143.578 274.577 145.613 277.586C144.759 279.239 143.814 281.385 140.905 281.329C130.023 281.119 136.037 289.615 133.262 289.615C124.073 289.615 124.44 288.918 124.44 296.32C124.44 299.565 123.659 306.878 123.734 308.661C123.982 314.541 117.744 315.412 120.588 317.947C125.805 322.598 124.087 322.235 124.087 329.532C124.087 343.06 137.485 335.004 133.907 341.179C129.055 349.554 128.031 345.438 127.971 354.933C128.825 355.093 129.519 355.38 130.024 355.835C133.016 358.537 140.387 362.254 144.2 362.61C149.47 363.101 159.109 365.37 163.79 367.001C170.992 369.509 189.121 366.987 192.313 369.536C195.401 372.002 209.635 371.146 213.896 375.149C213.896 381.007 215.494 376.734 216.205 379.036C217.286 382.544 230.529 381.583 234.494 382.79C241.913 385.049 242.43 383.316 247.772 384.504C251.158 385.257 249.819 386.139 251.876 388.113C253.656 387.86 259.737 384.954 262.624 384.092C266.442 382.953 271.99 383.495 275.091 380.484C282.142 373.637 285.523 384.454 288.753 384.371C293.976 384.236 291.598 382.604 290.517 381.442C285.243 375.773 292.494 372.659 294.883 376.318C295.95 377.951 300.148 383.472 303.353 381.698C304.381 381.698 305.409 381.698 306.438 381.698C310.276 381.698 318.075 388.949 318.849 383.546C320.365 372.975 328.886 378.151 330.051 381.209C331.385 384.709 340.875 377.12 330.878 371.006C329.892 370.296 330.274 370.429 329.113 370.472C319.928 370.813 329.735 362.759 329.789 362.743C333.986 361.528 336.91 349.985 340.789 351.296C349.658 354.292 360.381 345.669 364.372 346.996C371.391 349.329 376.209 346.357 380.312 350.157C382.586 352.264 380.087 364.027 391.514 355.748C399.304 350.104 391.842 345.124 385.575 345.346C378.738 345.589 379.429 338.894 380.514 336.946C386.232 326.668 378.532 324.78 382.046 322.603C390.233 317.534 384.542 320.233 388.398 316.051C392.019 312.124 389.431 308.633 386.281 308.727C376.462 309.021 384.182 305.889 385.416 299.222C384.846 299.285 384.267 299.18 383.813 299.038C382.632 298.669 372.374 301.64 366.936 299.168C356.526 294.435 358.042 300.104 354.171 300.038C345.658 299.894 344.014 303.044 342.174 302.978C322.324 302.275 321.285 312.442 310.414 308.729C293.931 303.099 301.329 312.04 295.915 312.089C286.589 312.174 297.606 297.708 276.89 305.071C266.251 308.852 269.42 299.708 265.628 298.236C256.48 294.685 261.274 280.958 257.834 281.061C247.051 281.382 254.709 277.253 250.656 275.784C239.976 271.911 247.826 266.092 235.925 266.092C227.553 266.092 225.368 263.416 225.368 258.318C225.368 254.068 211.934 252.264 207.049 251.391C203.844 250.818 200.356 245.39 199.438 242.638C192.081 242.628 188.089 242.389 186.141 241.986C181.566 243.674 176.732 243.695 175.83 245.278Z" fill="white" stroke="#FF8000" stroke-width="1.99997" stroke-miterlimit="22.9256"/>
<path fill-rule="evenodd" clip-rule="evenodd" d="M152.351 439.444C154.319 428.278 167.848 431.067 167.848 415.854C167.848 409.735 163.015 405.439 164.611 403.069C169.364 396.014 165.184 397.029 173.635 395.54C188.629 392.897 180.349 391.659 177.113 386.009C171.213 375.702 174.15 382.678 166.85 380.174C164.464 379.356 167.217 372.925 169.357 367.992C167.192 367.813 165.262 367.511 163.789 366.998C159.108 365.367 149.469 363.098 144.199 362.607C140.386 362.251 133.015 358.534 130.023 355.832C129.518 355.377 128.824 355.09 127.97 354.93C121.01 353.619 103.51 360.716 92.9094 353.381C86.2668 348.785 79.2607 353.571 73.7125 345.744C70.6124 341.371 58.4225 337.046 50.946 341.536C49.0941 342.649 40.0856 347.217 37.98 347.081C37.8791 347.057 31.8958 346.837 24.9048 346.547C22.2859 349.681 22.8147 354.37 24.695 357.745C26.4153 360.834 19.5468 366.861 24.0648 374.55C24.9902 376.125 26.0679 384.729 24.5185 386.345C21.2456 389.761 20.1936 390.244 13.5941 390.244C12.3153 390.244 11.0365 390.244 9.75763 390.244C10.7741 391.26 9.19439 391.626 8.89122 393.818C8.21003 398.743 -2.90595 393.288 2.55451 402.661C6.13509 408.807 9.13995 408.47 16.9774 410.267C26.0211 412.342 32.949 408.433 35.6953 415.247C36.917 418.277 37.3223 421.814 36.0786 424.835L36.0484 425.125C33.1796 428.337 34.8104 432.874 27.5494 438.756C23.268 442.225 31.1708 457.028 24.5857 465.554C21.9891 468.916 23.3198 470.538 15.2291 470.297C15.1346 470.294 5.47848 481.502 14.0795 486.625C20.6438 490.534 0.465214 511.304 17.6994 506.671C18.7306 506.394 27.4821 498.642 27.9025 508.787C28.042 512.153 39.5076 505.088 44.226 514.667C45.636 517.53 56.2186 513.331 58.2811 513.331C60.9676 513.331 66.9154 515.229 75.2193 514.935C83.5198 514.641 85.8204 516.507 84.7778 504.869C84.3276 499.849 82.2379 498.894 93.9221 497.805C100.882 497.156 108.262 495.861 112.454 500.302C120.566 508.896 134.138 510.115 146.734 506.557C148.918 505.94 153.362 504.62 158.114 503.575C157.967 502.97 157.804 502.504 157.805 502.179C157.834 494.346 156.669 498.617 152.85 493.648C147.646 486.879 158.677 492.342 160.79 487.6C160.79 486.758 160.985 483.668 160.658 483.067C159.549 481.024 162.611 478.142 158.904 477.21C150.097 474.996 152.635 472.415 152.497 468.367C152.204 459.769 156.102 460.66 155.849 454.122C154.861 453.476 151.319 453.054 149.941 453.054C144.779 453.054 151.774 442.72 152.351 439.444Z" fill="white" stroke="#EAD418" stroke-width="1.99997" stroke-miterlimit="22.9256"/>
<path fill-rule="evenodd" clip-rule="evenodd" d="M167.85 415.856C167.85 431.069 154.321 428.28 152.353 439.446C151.776 442.722 144.781 453.056 149.943 453.056C151.322 453.056 154.864 453.478 155.851 454.124C156.105 460.662 152.206 459.771 152.499 468.369C152.637 472.417 150.099 474.998 158.907 477.212C162.614 478.143 159.552 481.026 160.661 483.069C160.987 483.67 160.792 486.76 160.792 487.602C158.679 492.344 147.648 486.88 152.852 493.65C156.672 498.619 157.836 494.348 157.808 502.181C157.806 502.506 157.97 502.972 158.117 503.577C168.192 501.361 179.652 500.382 173.879 509.965C166.147 522.799 164.614 514.397 165.944 531.508C165.992 532.14 170.281 537.199 171.206 537.923C173.221 539.325 180.824 544.29 183.91 544.071C194.245 544.049 202.899 542.147 207.921 535.12C209.948 532.284 221.771 519.761 226.08 519.88C231.829 520.039 229.054 526.103 228.742 529.182C228.19 534.618 225.583 535.862 229.639 541.642C230.639 543.067 238.399 548.033 241.093 548.561C244.28 549.185 245.294 548.727 249.315 549.783C255.51 551.409 260.73 551.512 263.879 546.499C267.313 541.032 265.118 541.156 266.072 539.091C266.848 537.412 271.071 537.048 273.145 540.061C273.335 540.337 276.291 540.729 277.675 539.72C275.782 537.269 272.089 535.866 275.478 534.243C278.905 533.324 278.549 532.059 275.815 529.966C274.178 528.712 274.544 523.785 278.316 523.429C279.196 523.346 281.389 521.413 281.491 521.413C282.3 520.235 279.098 517.604 280.755 517.026C287.263 514.752 284.073 514.702 281.063 513.127C269.85 507.26 282.046 508.313 284.859 507.502C290.643 505.835 289.063 503.907 289.063 499.438C289.063 494.192 296.468 491.266 296.121 489.338C296.997 488.994 295.485 484.82 295.77 484.394C290.99 482.965 297.385 463.675 298.24 463.209C315.567 453.765 292.719 448.05 300.649 443.919C304.8 441.756 297.996 424.611 302.091 422.825C312.188 418.424 308.337 418.854 312.093 411.935C314.227 408.005 307.871 403.124 302.828 402.847C292.394 402.273 301.422 392.523 302.152 388.994C303.717 381.433 298.575 386.428 291.989 383.231C292.123 383.83 291.455 384.3 288.753 384.37C285.523 384.453 282.142 373.637 275.092 380.483C271.99 383.494 266.442 382.952 262.625 384.091C259.738 384.953 253.656 387.859 251.876 388.112C249.819 386.138 251.158 385.256 247.773 384.504C242.43 383.315 241.913 385.048 234.494 382.789C230.529 381.582 217.287 382.543 216.205 379.036C215.494 376.733 213.896 381.007 213.896 375.149C209.635 371.145 195.401 372.001 192.313 369.535C189.774 367.508 177.782 368.689 169.358 367.994C167.218 372.928 164.464 379.358 166.851 380.176C174.151 382.68 171.214 375.704 177.114 386.011C180.35 391.661 188.63 392.899 173.636 395.542C165.185 397.031 169.365 396.016 164.612 403.072C163.016 405.441 167.849 409.737 167.849 415.856H167.85Z" fill="white" stroke="#039100" stroke-width="1.99997" stroke-miterlimit="22.9256"/>
<path fill-rule="evenodd" clip-rule="evenodd" d="M302.089 422.825C297.995 424.61 304.799 441.755 300.648 443.918C292.717 448.05 315.565 453.765 298.238 463.209C297.383 463.675 290.988 482.965 295.768 484.394C295.483 484.819 296.996 488.994 296.119 489.337C296.466 491.265 289.061 494.191 289.061 499.437C289.061 503.907 290.641 505.835 284.857 507.502C282.045 508.312 269.848 507.26 281.061 513.126C284.071 514.701 287.261 514.752 280.753 517.025C279.096 517.604 282.298 520.234 281.49 521.412C281.387 521.412 279.194 523.345 278.314 523.428C274.542 523.785 274.175 528.712 275.813 529.965C278.546 532.058 278.904 533.323 275.476 534.242C272.087 535.865 275.78 537.268 277.674 539.72C277.924 539.538 278.123 539.309 278.245 539.025C278.889 537.524 283.701 539.368 283.997 541.263C284.182 542.45 286.902 545.823 289.935 544.436C291.842 543.564 295.96 541.263 297.185 541.263C298.138 541.263 298.992 541.152 299.302 542.065C299.33 542.536 303.362 551.766 307.476 548.969C310.192 547.123 308.735 545.561 314.666 547.056C316.828 547.601 330.956 555.387 329.31 546.999C328.975 545.292 325.237 547.297 325.237 542.947C325.237 539.849 324.425 535.015 328.943 533.268C329.012 533.24 335.573 536.919 336.782 534.547C338.692 530.797 339.62 533.708 339.353 528.968C339.267 527.449 357.747 530.176 357.864 527.475C357.961 525.221 359.619 523.263 354.819 521.438C352.462 520.541 351.912 512.879 358.288 513.832C370.142 515.604 365.224 505.347 367.407 504.11C365.293 497.675 369.348 493.653 369.348 487.882C369.348 484.216 376.787 491.476 378.992 478.973C379.246 477.535 381.037 471.232 384.109 473.104C387.745 475.32 390.765 476.484 395.623 476.312C396.194 475.73 397.561 471.118 398.109 471.099C407.719 470.774 409.981 476.15 411.917 465.944C413.033 460.061 413.636 459.176 413.636 452.721C413.636 450.784 413.636 448.846 413.636 446.909C413.683 446.816 413.736 446.727 413.792 446.643C406.728 441.118 400.677 434.274 394.574 434.274C388.492 434.274 384.647 428.042 384.694 427.012C384.835 423.877 379.545 414.367 383.252 411.799C392.492 405.399 372.64 401.942 372.695 401.222C374.096 382.767 378.974 398.769 381.195 385.093C382.972 374.151 367.552 372.77 364.992 378.166C362.095 384.274 354.929 378.551 347.378 378.12C338.151 377.593 340.243 378.015 337.851 381.152C335.677 384.002 333.598 383.483 332.03 381.988C331.155 382.248 330.369 382.045 330.051 381.208C328.885 378.15 320.365 372.974 318.848 383.545C318.074 388.948 310.275 381.697 306.437 381.697C305.409 381.697 304.38 381.697 303.352 381.697C300.147 383.471 295.95 377.95 294.882 376.317C292.493 372.658 285.242 375.772 290.516 381.441C291.038 382.002 291.862 382.672 291.988 383.231C298.575 386.427 303.716 381.433 302.151 388.994C301.42 392.523 292.392 402.273 302.826 402.847C307.87 403.124 314.226 408.004 312.092 411.935C308.336 418.854 312.187 418.423 302.09 422.825H302.089Z" fill="white" stroke="#2B2A29" stroke-width="1.99997" stroke-miterlimit="22.9256"/>
<path fill-rule="evenodd" clip-rule="evenodd" d="M381.194 385.09C378.973 398.766 374.096 382.764 372.694 401.219C372.64 401.94 392.492 405.396 383.251 411.796C379.544 414.364 384.834 423.874 384.693 427.009C384.647 428.039 388.492 434.272 394.574 434.272C400.677 434.272 406.727 441.115 413.792 446.641C415.248 444.492 419.676 445.56 421.957 446.172C425.876 447.224 426.447 450.676 431.522 452.404C432.184 452.629 439.153 454.857 439.13 454.086C439.072 452.195 439.094 450.177 439.586 448.333C439.874 447.255 439.801 446.173 441.424 445.571C444.23 441.229 449.079 442.791 450.478 435.658C451.913 428.343 455.358 427.818 447.655 421.247C445.529 419.434 448.952 417.814 445.356 415.39C440.704 412.253 453.892 410.486 454.421 409.823C461.841 400.512 448.354 399.619 453.473 393.786C462.578 383.408 460.898 390.302 463.948 387.859C469.87 383.117 460.706 384.285 471.208 383.338C475.535 382.948 473.638 372.49 474.535 368.011C475.353 363.927 465.778 365.09 461.034 363.826C457.896 362.991 459.33 355.854 459.33 353.624C462.005 353.624 472.387 354.597 472.387 352.287C472.387 347.204 478.854 348.662 482.358 346.452C483.647 345.639 491.298 347.722 489.265 343.642C488.669 342.447 476.621 345.874 476.621 337.319C474.687 335.216 473.946 329.817 478.885 329.555C481.472 329.418 479.96 332.482 489.19 330.09C494.124 328.811 487.182 319.884 490.591 317.951C497.587 313.983 495.953 309.901 500.704 306.793C502.191 305.82 498.554 302.169 496.207 302.169C494.065 301.89 482.221 294.552 481.739 293.082C480.982 290.773 480.328 291.048 480.328 288.037C480.328 278.542 482.116 280.337 472.665 280.664C465.849 280.899 458.648 280.041 452.082 281.141C445.354 282.268 438.676 279.878 435.204 281.775C430.468 284.362 432.571 281.581 428.675 286.01C426.934 287.989 424.677 287.49 424.587 284.539C424.496 281.523 419.339 280.118 416.486 279.258C413.006 278.21 413.812 280.033 410.441 281.687C405.628 284.049 410.501 291.722 400.046 295.174C395.786 296.58 398.236 296.196 393.18 296.277C392.585 296.287 388.817 297.935 385.345 299.565C383.919 305.994 376.633 309.012 386.28 308.724C389.43 308.63 392.019 312.121 388.398 316.048C384.541 320.229 390.233 317.53 382.046 322.6C378.531 324.777 386.232 326.665 380.513 336.942C379.429 338.89 378.738 345.586 385.575 345.343C391.842 345.121 399.304 350.1 391.514 355.744C380.087 364.024 382.586 352.261 380.312 350.154C376.209 346.353 371.39 349.325 364.372 346.992C360.381 345.666 349.658 354.289 340.789 351.292C336.909 349.982 333.986 361.525 329.789 362.74C329.735 362.755 319.927 370.81 329.113 370.469C330.273 370.426 329.892 370.293 330.878 371.003C338.483 375.654 334.811 381.159 332.03 381.986C333.598 383.481 335.678 383.999 337.851 381.15C340.244 378.012 338.152 377.591 347.379 378.118C354.93 378.549 362.095 384.272 364.993 378.164C367.553 372.768 382.972 374.149 381.195 385.091L381.194 385.09Z" fill="white" stroke="#008DAC" stroke-width="1.99997" stroke-miterlimit="22.9256"/>
</g>
</g>
<defs>
<clipPath id="clip0_327_2">
<rect width="500" height="600" fill="white"/>
</clipPath>
</defs>
</svg>
