<?xml version="1.0" encoding="UTF-8"?>
<!DOCTYPE svg PUBLIC "-//W3C//DTD SVG 1.1//EN" "http://www.w3.org/Graphics/SVG/1.1/DTD/svg11.dtd">
<!-- Creator: CorelDRAW 2020 (64-Bit) -->
<svg xmlns="http://www.w3.org/2000/svg" xml:space="preserve" width="125.49mm" height="182.004mm" version="1.1" style="shape-rendering:geometricPrecision; text-rendering:geometricPrecision; image-rendering:optimizeQuality; fill-rule:evenodd; clip-rule:evenodd"
viewBox="0 0 13282.79 19264.62"
 xmlns:xlink="http://www.w3.org/1999/xlink"
 xmlns:xodm="http://www.corel.com/coreldraw/odm/2003">
 <defs>
  <style type="text/css">
   <![CDATA[
    .str0 {stroke:#2B2A29;stroke-width:56.01;stroke-miterlimit:22.9256}
    .fil0 {fill:#D9DADA}
   ]]>
  </style>
 </defs>
 <g id="Layer_x0020_1">
  <metadata id="CorelCorpID_0Corel-Layer"/>
  <path class="fil0 str0" d="M706.9 6764.95c0.85,303.13 -256.83,143.91 -59.37,621.68 172.09,-43.58 460.65,-79.49 581.36,26.17 159.12,139.28 526.83,-142.78 584.92,-8.53 115.89,267.86 291.81,27.6 448.88,293.39 55.23,93.44 664.78,-149.01 728.95,195.24 18.89,101.36 146.6,178.49 252.85,-2.4 88.11,-149.97 329.87,-220.52 382.74,-62.13 49.79,149.13 221.81,200.54 353.94,213.9 82.58,8.35 433.21,1.52 636.82,2.64 10.08,-475.12 185.62,-355.17 270.26,-723.04 34.66,-150.65 -54.92,-481.38 -17.87,-782.56 33.09,-268.98 -145.91,-379.99 62.14,-722 77.7,-127.74 -97.59,-337.69 -270.71,-343.01 -87.87,-2.69 -221.38,-99.18 -389.68,-92.54 -79.1,3.12 -74.69,-196.63 -74.69,-242.72 -27.02,-54.99 -53.56,-549.93 -17.07,-572.65 73.09,-45.52 105.28,-17.88 258.19,-121.09 342.27,-231.02 190.54,142.02 418.48,-326.99 13.44,-27.67 49.78,-80.22 92.13,-139.45 -98.25,-42.28 -111.51,-156.28 -97.47,-363.74 8.08,-119.37 213.9,-313.99 213.9,-361.67 0,-229.7 -105.62,-364.07 133.1,-364.07 115.93,0 127.58,17.75 118.15,-45.87 -23.77,-160.45 -111.21,-82.49 -111.21,-318.2 0,-173.72 -186.55,-509.28 -121.36,-522.77 0,-83.39 53.61,-151.77 120.56,-196.04 231.11,-152.78 31.32,-332.25 -55.21,-460.63 -170.97,-253.67 -22.71,-393.23 17.07,-566.24 30.2,-131.31 507.98,-363.69 294.18,-315.81 -629.55,141.02 -314.13,-300.32 -1008.99,-300.32 -208.43,0 -278.53,-179.94 -283.27,-125.35 -35.84,413.41 188.47,344.31 227.25,469.95 110.56,358.2 -279.38,-67.48 -301.93,140.03 -26.62,245.1 -11.67,113.49 -112.82,339.01 -214.72,478.75 267.6,330.06 300.33,567.31 62.22,450.99 -248.47,276.42 -242.72,130.7 14.19,-359.89 -160.08,-35.69 -301.12,-182.7 -155.56,-162.15 -492.4,-140.23 -529.7,72.27 -15.21,86.63 -83.55,155.03 -84.02,157.1 -128.45,36.13 -106.24,-47.42 -185.9,-66.14 -312.5,-73.44 -185.08,224.34 -206.98,402.21 -8.2,66.67 -287.78,172.04 -297.92,270.73 -25.73,250.33 -115.07,314.85 132.29,441.94 463.32,238.07 105.36,429.45 -94.14,588.12 -244.35,194.34 -440.84,20.81 -487.83,154.7 -73.91,210.58 -256.18,269.38 -446.47,178.1 8.67,11.67 18.05,24.67 19.48,39.75 45.38,479.28 281.8,401.54 -86.42,974.86 -141.36,220.09 -7.74,212.87 -7.74,435.54 0,488.94 -17.05,444.89 -391.26,444.89 -130.19,0 -150.32,268.14 -160.31,375.81 -18.62,200.87 -203.9,740.82 -203.77,792.69z"/>
  <path class="fil0 str0" d="M4932.52 5817.28c-208.05,342.01 -29.06,453.03 -62.14,722 -37.06,301.18 52.53,631.91 17.87,782.56 -84.64,367.87 -260.18,247.93 -270.26,723.04 81.9,0.44 140.03,2.18 147.33,6.7 118.69,73.43 375.92,-32.98 234.18,242.72 -46.38,90.22 -362.17,177.37 288.59,177.37 2.28,0 5.76,0.84 10.33,2.36 43.93,-59.64 120.94,-91 191.96,-91 166.95,0 578.77,-215.49 578.77,-345.4 0,-496.44 112.03,-47.18 112.03,-354.74 0,-342.99 599.36,-33.3 588.91,-251.25 -12.03,-251.08 -395.56,-123.84 -164.17,-453.56 50.04,-29.71 325.84,-111.53 390.48,-61.6 421.4,325.51 186.5,-225.04 369.4,-387.28 152.78,-135.53 -148.41,-455.79 33.61,-447.28 385.38,18.03 283.35,-563.34 388.88,-560.11 283.44,8.67 19.24,-179.26 -2.4,-217.11 -267.61,-467.93 444.43,-150.4 445.15,-521.17 0.33,-172.82 477.92,-747.26 304.86,-696.93 -226.38,65.83 -245.72,0.67 -427.02,-30.41 -382.19,-65.52 -193.98,7.85 -244.31,-204.57 -237.93,-54.78 -269.13,143.11 -269.13,-187.5 0,-292.17 53.88,-336.83 -170.44,-297.13 -439.53,77.78 -224.89,-189.88 -316.59,-228.83 -195.76,-83.16 -62.77,255.24 -360.07,255.24 -92.61,0 -279.11,282.13 -311.26,370.21 -173.57,475.45 65.31,460.62 -462.75,460.62 -229.51,0 85.74,-307.79 -284.06,-252.85 -308.91,45.91 -114.11,-261.1 -325.95,-167.2 0,75.77 -82.39,169.41 -130.7,177.37 -134.45,22.14 -225.01,22.84 -284.45,-2.73 -42.35,59.23 -78.69,111.79 -92.13,139.45 -227.94,469.01 -76.21,95.97 -418.48,326.99 -152.92,103.21 -185.11,75.56 -258.19,121.09 -36.49,22.73 -9.95,517.67 17.07,572.65 0,46.09 -4.41,245.84 74.69,242.72 168.3,-6.64 301.8,89.85 389.68,92.54 173.12,5.31 348.42,215.27 270.71,343.01z"/>
  <path class="fil0 str0" d="M4415.7 8871.55c12.64,-58.25 177.95,-173.67 235.77,-307.67 23.87,-55.29 151.71,-56.04 272.74,-114.97 -116.54,-31.74 43.32,-92.45 75.28,-154.61 141.74,-275.7 -115.49,-169.29 -234.18,-242.72 -7.3,-4.52 -65.42,-6.26 -147.33,-6.7 -203.61,-1.11 -554.24,5.72 -636.82,-2.64 -132.13,-13.36 -304.15,-64.77 -353.94,-213.9 -52.87,-158.39 -294.64,-87.84 -382.74,62.13 -106.25,180.89 -233.95,103.76 -252.85,2.4 -64.16,-344.25 -673.72,-101.79 -728.95,-195.24 -157.07,-265.78 -332.98,-25.53 -448.88,-293.39 -58.09,-134.25 -425.8,147.82 -584.92,8.53 -120.71,-105.66 -409.27,-69.74 -581.36,-26.17 -1.95,-4.7 -3.84,-9.34 -5.69,-13.92 -59.85,51.4 -119,93.57 -159.73,97.78 -16.77,48.45 -158.47,65.25 -249.65,398.22 -65.72,239.98 40.01,300.73 10.93,384.34 152.35,97.94 288.57,-155.42 565.45,21.06 119.85,76.38 214.71,479.7 214.71,643.33 0,444.54 72.15,41.01 292.58,485.43l6.14 18.67c0,360.85 -236.43,124.58 -224.05,653.46 0.94,40.09 -41.46,128.75 -46.67,177.37 -24.21,53.46 -28.01,44.4 -28.01,93.35 -96.5,322.34 -169.07,183.9 1.59,551.19 39.33,84.65 44.81,250.6 -17.6,322.07 -60.65,69.46 -66.99,63.92 -119.35,116.28 -205.82,205.82 245.71,246.95 -87.48,567.04 -59.17,56.83 -132.62,118.87 -155.74,197.72 190.88,10.51 357.16,18.56 359.89,19.4 55.7,4.77 294.01,-154.79 343,-193.64 197.78,-156.82 520.25,-5.76 602.26,146.96 146.78,273.35 332.12,106.2 507.83,266.71 280.42,256.18 743.38,8.32 927.5,54.09 1.58,-331.6 28.67,-187.85 157.02,-480.35 94.64,-215.67 -259.79,65.69 -259.79,-406.75 0,-254.87 45.46,-242.19 -92.54,-404.61 -75.25,-88.55 89.76,-118.97 83.21,-324.33 -1.99,-62.26 18.67,-317.67 18.67,-431.01 0,-258.51 -9.71,-234.19 233.38,-234.19 73.41,0 -85.69,-296.7 202.18,-289.39 76.97,1.96 101.97,-72.99 124.55,-130.7 -53.83,-105.07 223.56,-244.51 301.81,-368.34 120.51,-190.67 128.74,160.75 261.78,-452.35z"/>
  <path class="fil0 str0" d="M4651.48 8563.88c-57.82,133.99 -223.14,249.42 -235.77,307.67 -133.04,613.1 -141.27,261.68 -261.78,452.35 -78.25,123.83 -355.65,263.26 -301.81,368.34 -22.58,57.71 -47.58,132.66 -124.55,130.7 -287.87,-7.31 -128.77,289.39 -202.18,289.39 -243.09,0 -233.38,-24.32 -233.38,234.19 0,113.34 -20.66,368.75 -18.67,431.01 6.55,205.35 -158.45,235.77 -83.21,324.33 138,162.42 92.54,149.74 92.54,404.61 0,472.44 354.43,191.08 259.79,406.75 -128.35,292.5 -155.45,148.75 -157.02,480.35 22.57,5.61 40.95,15.63 54.29,31.53 79.16,94.36 274.14,224.17 375.01,236.59 139.42,17.15 394.4,96.42 518.24,153.36 190.51,87.6 670.11,-0.47 754.54,88.54 81.69,86.12 458.23,56.22 570.94,196.05 0,204.6 42.29,55.34 61.08,135.76 28.62,122.49 378.93,88.94 483.83,131.1 196.25,78.88 209.93,18.36 351.26,59.87 89.56,26.29 54.13,57.08 108.56,126.03 47.08,-8.83 207.96,-110.32 284.33,-140.43 100.99,-39.8 247.76,-20.85 329.8,-126.03 186.51,-239.1 275.96,138.67 361.4,135.76 138.18,-4.71 75.26,-61.71 46.67,-102.28 -139.53,-198 52.29,-306.76 115.5,-178.97 28.23,57.05 139.27,249.88 224.05,187.9 27.2,0 54.41,0 81.61,0 101.53,0 307.84,253.24 328.33,64.54 40.11,-369.18 265.51,-188.42 296.34,-81.61 35.28,122.24 286.34,-142.81 21.87,-356.33 -26.09,-24.81 -15.99,-20.17 -46.68,-18.67 -243,11.92 16.44,-269.38 17.87,-269.92 111.02,-42.44 188.37,-445.58 291,-399.81 234.61,104.65 518.29,-196.51 623.85,-150.18 185.68,81.48 313.15,-22.31 421.68,110.43 60.15,73.57 -5.95,484.39 296.33,195.24 206.07,-197.12 8.69,-371.03 -157.11,-363.27 -180.86,8.47 -162.57,-225.36 -133.89,-293.4 151.28,-358.93 -52.43,-424.88 40.54,-500.9 216.57,-177.06 66.02,-82.8 168.03,-228.84 95.79,-137.14 27.32,-259.06 -56.01,-255.78 -259.75,10.24 -55.51,-99.14 -22.88,-331.96 -15.07,2.17 -30.38,-1.49 -42.39,-6.45 -31.25,-12.89 -302.62,90.89 -446.48,4.53 -275.38,-165.3 -235.27,32.7 -337.66,30.41 -225.22,-5.04 -268.71,104.96 -317.39,102.68 -525.09,-24.57 -552.59,330.53 -840.17,200.85 -436.04,-196.63 -240.32,115.63 -383.54,117.35 -246.72,2.95 44.73,-502.26 -503.29,-245.11 -281.43,132.04 -197.6,-187.31 -297.93,-238.72 -241.99,-124.01 -115.17,-603.43 -206.18,-599.85 -285.24,11.24 -82.67,-132.98 -189.89,-184.3 -282.51,-135.24 -74.84,-338.47 -389.69,-338.47 -221.45,0 -279.26,-93.45 -279.26,-271.53 0,-148.4 -355.38,-211.41 -484.62,-241.9 -84.78,-20.01 -177.05,-209.58 -201.34,-305.72 -194.61,-0.33 -300.2,-8.7 -351.74,-22.75 -121.03,58.94 -248.87,59.68 -272.74,114.97z"/>
  <path class="fil0 str0" d="M4030.37 15345.23c52.05,-389.99 409.95,-292.57 409.95,-823.89 0,-213.71 -127.84,-363.75 -85.62,-446.5 125.73,-246.42 15.16,-210.95 238.72,-262.98 396.65,-92.31 177.59,-135.54 92.01,-332.87 -156.1,-359.95 -78.39,-116.33 -271.52,-203.78 -63.12,-28.58 9.73,-253.17 66.32,-425.46 -57.27,-6.23 -108.32,-16.81 -147.28,-34.72 -123.84,-56.95 -378.82,-136.21 -518.24,-153.36 -100.86,-12.42 -295.84,-142.23 -375.01,-236.59 -13.34,-15.9 -31.72,-25.92 -54.29,-31.53 -184.12,-45.77 -647.08,202.09 -927.5,-54.09 -175.72,-160.52 -361.06,6.64 -507.83,-266.71 -82.01,-152.72 -404.48,-303.78 -602.26,-146.96 -48.99,38.85 -287.3,198.41 -343,193.64 -2.67,-0.83 -160.95,-8.5 -345.89,-18.63 -69.28,109.44 -55.29,273.19 -5.55,391.08 45.51,107.89 -136.19,318.38 -16.67,586.92 24.48,55.01 52.99,355.5 12,411.95 -86.58,119.28 -114.41,136.16 -288.99,136.16 -33.83,0 -67.66,0 -101.49,0 26.89,35.48 -14.9,48.25 -22.92,124.81 -18.02,172.03 -312.08,-18.49 -167.63,308.85 94.72,214.66 174.21,202.87 381.54,265.66 239.24,72.46 422.51,-64.06 495.16,173.91 32.32,105.84 43.04,229.36 10.14,334.86l-0.8 10.14c-75.89,112.18 -32.75,270.62 -224.83,476.07 -113.26,121.15 95.8,638.13 -78.4,935.92 -68.69,117.42 -33.49,174.07 -247.52,165.63 -2.5,-0.1 -257.94,391.33 -30.41,570.25 173.65,136.54 -360.15,861.95 95.76,700.14 27.28,-9.69 258.79,-280.43 269.91,73.88 3.69,117.56 307,-129.19 431.82,205.38 37.3,99.97 317.25,-46.68 371.81,-46.68 71.07,0 228.41,66.28 448.08,56.01 219.58,-10.26 280.44,54.93 252.86,-351.54 -11.91,-175.34 -67.19,-208.68 241.9,-246.72 184.12,-22.65 379.35,-67.88 490.24,87.22 214.59,300.14 573.63,342.7 906.85,218.45 57.75,-21.54 175.33,-67.65 301.04,-104.15 -3.9,-21.12 -8.21,-37.4 -8.18,-48.76 0.76,-273.56 -30.05,-124.38 -131.09,-297.93 -137.66,-236.43 154.16,-45.61 210.04,-211.24 0,-29.41 5.17,-137.3 -3.47,-158.29 -29.34,-71.36 51.65,-172.04 -46.4,-204.58 -233,-77.31 -165.85,-167.47 -169.5,-308.85 -7.76,-300.28 95.37,-269.17 88.67,-497.48 -26.12,-22.57 -119.83,-37.33 -156.29,-37.33 -136.56,0 48.48,-360.9 63.75,-475.3z"/>
  <path class="fil0 str0" d="M4440.32 14521.33c0,531.32 -357.9,433.9 -409.95,823.89 -15.27,114.4 -200.32,475.3 -63.75,475.3 36.46,0 130.17,14.77 156.29,37.33 6.7,228.31 -96.43,197.2 -88.67,497.48 3.65,141.38 -63.5,231.54 169.5,308.85 98.06,32.54 17.06,133.22 46.4,204.58 8.64,20.99 3.47,128.88 3.47,158.29 -55.89,165.63 -347.71,-25.19 -210.04,211.24 101.04,173.55 131.85,24.37 131.09,297.93 -0.03,11.37 4.29,27.65 8.18,48.76 266.54,-77.38 569.69,-111.59 416.96,223.1 -204.53,448.23 -245.08,154.79 -209.91,752.41 1.29,22.08 114.73,198.75 139.22,224.05 53.28,48.94 254.41,222.36 336.06,214.71 273.39,-0.77 502.32,-67.21 635.19,-312.63 53.61,-99.04 366.37,-536.41 480.36,-532.24 152.1,5.56 78.68,217.33 70.42,324.87 -14.59,189.85 -83.57,233.28 23.74,435.15 26.45,49.78 231.72,223.22 302.99,241.65 84.32,21.8 111.15,5.81 217.51,42.68 163.88,56.79 301.97,60.4 385.28,-114.69 90.84,-190.93 32.76,-186.6 58.01,-258.72 20.52,-58.63 132.25,-71.35 187.11,33.87 5.03,9.64 83.23,23.34 119.84,-11.89 -50.09,-85.63 -147.78,-134.62 -58.14,-191.31 90.68,-32.1 81.24,-76.28 8.93,-149.37 -43.32,-43.79 -33.62,-215.85 66.15,-228.3 23.29,-2.91 81.3,-70.42 84.01,-70.42 21.39,-41.14 -63.32,-133.01 -19.48,-153.22 172.16,-79.4 87.76,-81.16 8.14,-136.16 -296.63,-204.9 26.02,-168.13 100.43,-196.44 153.01,-58.23 111.21,-125.55 111.21,-281.66 0,-183.21 195.88,-285.41 186.7,-352.74 23.19,-11.99 -16.82,-157.79 -9.29,-172.66 -126.43,-49.91 42.73,-723.61 65.34,-739.88 458.37,-329.84 -146.04,-529.43 63.75,-673.73 109.81,-75.53 -70.19,-674.33 38.14,-736.68 267.11,-153.73 165.24,-138.7 264.59,-380.35 56.44,-137.27 -111.7,-307.71 -245.11,-317.39 -276.02,-20.04 -37.19,-360.57 -17.87,-483.82 41.4,-264.06 -94.62,-89.64 -268.86,-201.27 3.56,20.9 -14.11,37.33 -85.59,39.77 -85.44,2.91 -174.89,-374.86 -361.4,-135.76 -82.04,105.18 -228.81,86.23 -329.8,126.03 -76.37,30.1 -237.25,131.6 -284.33,140.43 -54.43,-68.95 -19,-99.74 -108.56,-126.03 -141.34,-41.5 -155.01,19.01 -351.26,-59.87 -104.89,-42.16 -455.21,-8.62 -483.83,-131.1 -18.8,-80.42 -61.08,68.84 -61.08,-135.76 -112.71,-139.83 -489.25,-109.93 -570.94,-196.05 -67.17,-70.81 -384.42,-29.55 -607.27,-53.82 -56.6,172.3 -129.44,396.88 -66.32,425.46 193.13,87.45 115.42,-156.18 271.52,203.78 85.58,197.33 304.64,240.56 -92.01,332.87 -223.56,52.02 -112.99,16.55 -238.72,262.98 -42.22,82.74 85.62,232.79 85.62,446.5z"/>
  <path class="fil0 str0" d="M7991.55 14764.75c-108.32,62.34 71.67,661.14 -38.14,736.68 -209.79,144.3 394.62,343.89 -63.75,673.73 -22.61,16.27 -191.77,689.98 -65.34,739.88 -7.53,14.87 32.48,160.67 9.29,172.66 9.18,67.33 -186.7,169.52 -186.7,352.74 0,156.11 41.8,223.43 -111.21,281.66 -74.41,28.31 -397.05,-8.46 -100.43,196.44 79.62,55 164.02,56.77 -8.14,136.16 -43.84,20.22 40.87,112.08 19.48,153.22 -2.71,0 -60.72,67.51 -84.01,70.42 -99.77,12.45 -109.48,184.51 -66.15,228.3 72.3,73.09 81.75,117.27 -8.93,149.37 -89.64,56.69 8.05,105.68 58.14,191.31 6.63,-6.37 11.9,-14.35 15.11,-24.26 17.04,-52.42 144.34,11.98 152.16,78.16 4.9,41.45 76.85,159.26 157.1,110.82 50.45,-30.45 159.37,-110.82 191.77,-110.82 25.21,0 47.81,-3.9 56.01,28.01 0.74,16.44 107.4,338.8 216.25,241.12 71.84,-64.46 33.29,-119.04 190.18,-66.82 57.21,19.04 430.94,290.97 387.4,-2 -8.86,-59.61 -107.75,10.43 -107.75,-141.49 0,-108.21 -21.47,-277.05 98.03,-338.07 1.85,-0.95 175.39,127.51 207.37,44.67 50.54,-130.95 75.1,-29.3 68.02,-194.83 -2.27,-53.07 486.6,42.2 489.69,-52.15 2.58,-78.73 46.42,-147.09 -80.54,-210.84 -62.37,-31.32 -76.9,-298.93 91.75,-265.64 313.58,61.89 183.5,-296.35 241.25,-339.54 -55.94,-224.75 51.35,-365.2 51.35,-566.78 0,-128.01 196.79,125.55 255.12,-311.14 6.71,-50.21 54.09,-270.35 135.36,-204.97 96.18,77.38 176.07,118.05 304.59,112.03 15.11,-20.3 51.25,-181.39 65.75,-182.04 254.23,-11.36 314.07,176.38 365.27,-180.04 29.52,-205.47 45.48,-236.39 45.48,-461.83 0,-67.66 0,-135.32 0,-202.97 1.26,-3.27 2.64,-6.37 4.14,-9.29 -186.88,-192.97 -346.94,-431.99 -508.39,-431.99 -160.89,0 -262.61,-217.66 -261.38,-253.64 3.73,-109.5 -136.21,-441.63 -38.15,-531.31 244.45,-223.54 -280.71,-344.25 -279.26,-369.41 37.07,-644.54 166.1,-85.68 224.85,-563.31 47.01,-382.13 -360.9,-430.39 -428.62,-241.91 -76.65,213.31 -266.21,13.45 -465.96,-1.61 -244.09,-18.4 -188.74,-3.69 -252.04,105.9 -57.5,99.51 -112.49,81.41 -153.98,29.19 -23.13,9.08 -43.93,2 -52.36,-27.25 -30.83,-106.81 -256.23,-287.58 -296.34,81.61 -20.49,188.7 -226.8,-64.54 -328.33,-64.54 -27.2,0 -54.41,0 -81.61,0 -84.77,61.98 -195.82,-130.85 -224.05,-187.9 -63.21,-127.79 -255.03,-19.03 -115.5,178.97 13.8,19.58 35.61,43.01 38.92,62.51 174.25,111.63 310.26,-62.79 268.86,201.27 -19.33,123.25 -258.15,463.78 17.87,483.82 133.41,9.69 301.55,180.12 245.11,317.39 -99.35,241.65 2.52,226.62 -264.59,380.35z"/>
  <path class="fil0 str0" d="M10084.16 13446.94c-58.76,477.62 -187.78,-81.23 -224.85,563.31 -1.45,25.16 523.71,145.87 279.26,369.41 -98.07,89.68 41.87,421.81 38.15,531.31 -1.23,35.98 100.49,253.64 261.38,253.64 161.46,0 321.51,239.02 508.39,431.99 38.52,-75.04 155.66,-37.73 215.99,-16.36 103.68,36.73 118.79,157.29 253.05,217.64 17.5,7.86 201.87,85.68 201.25,58.75 -1.52,-66.03 -0.96,-136.53 12.07,-200.91 7.62,-37.68 5.69,-75.45 48.61,-96.49 74.23,-151.65 202.51,-97.08 239.52,-346.2 37.97,-255.49 129.1,-273.82 -74.68,-503.29 -56.23,-63.32 34.31,-119.91 -60.81,-204.57 -123.08,-109.55 225.8,-171.28 239.79,-194.44 196.29,-325.18 -160.49,-356.36 -25.08,-560.1 240.87,-362.45 196.42,-121.65 277.12,-206.97 156.64,-165.64 -85.77,-124.84 192.04,-157.9 114.47,-13.62 64.29,-378.89 88.02,-535.3 21.64,-142.64 -231.66,-102.04 -357.14,-146.16 -83.03,-29.19 -45.08,-278.42 -45.08,-356.33 70.75,0 345.4,34 345.4,-46.68 0,-177.51 171.08,-126.59 263.78,-203.78 34.09,-28.39 236.48,44.33 182.7,-98.14 -15.76,-41.76 -334.47,77.94 -334.47,-220.85 -51.17,-73.45 -70.78,-262 59.88,-271.15 68.44,-4.78 28.45,102.22 272.6,18.67 130.54,-44.67 -53.11,-356.44 37.07,-423.95 185.07,-138.56 141.86,-281.15 267.52,-389.68 39.35,-33.99 -56.86,-161.5 -118.95,-161.5 -56.66,-9.74 -369.98,-266.02 -382.73,-317.38 -20.02,-80.64 -37.34,-71.03 -37.34,-176.17 0,-331.64 47.31,-268.92 -202.71,-257.52 -180.31,8.21 -370.8,-21.74 -544.51,16.67 -177.98,39.35 -354.62,-44.13 -446.48,22.13 -125.27,90.36 -69.65,-6.78 -172.71,147.9 -46.06,69.14 -105.77,51.71 -108.14,-51.35 -2.42,-105.33 -138.83,-154.4 -214.31,-184.44 -92.06,-36.62 -70.74,27.05 -159.9,84.83 -127.33,82.5 1.57,350.46 -274.99,471.02 -112.7,49.12 -47.9,35.71 -181.63,38.54 -15.74,0.34 -115.44,57.9 -207.28,114.81 -37.73,224.54 -230.47,329.96 24.75,319.9 83.33,-3.28 151.81,118.64 56.01,255.78 -102.02,146.04 48.54,51.78 -168.03,228.84 -92.97,76.02 110.74,141.97 -40.54,500.9 -28.68,68.04 -46.97,301.87 133.89,293.4 165.8,-7.76 363.18,166.15 157.11,363.27 -302.28,289.15 -236.18,-121.66 -296.33,-195.24 -108.54,-132.74 -236.01,-28.95 -421.68,-110.43 -105.56,-46.33 -389.24,254.83 -623.85,150.18 -102.63,-45.78 -179.97,357.36 -291,399.81 -1.43,0.54 -260.87,281.84 -17.87,269.92 30.69,-1.5 20.59,-6.14 46.68,18.67 201.19,162.44 104.04,354.7 30.49,383.58 41.48,52.21 96.48,70.31 153.98,-29.19 63.31,-109.59 7.95,-124.3 252.04,-105.9 199.75,15.06 389.31,214.92 465.96,1.61 67.72,-188.47 475.62,-140.22 428.62,241.91z"/>
 </g>
</svg>
